<?xml version="1.0" encoding="UTF-8"?>
<svg version="1.1" xmlns="http://www.w3.org/2000/svg" width="1079" height="146">
<path d="M0 0 C356.07 0 712.14 0 1079 0 C1079 48.18 1079 96.36 1079 146 C722.93 146 366.86 146 0 146 C0 97.82 0 49.64 0 0 Z " fill="#FEFCFD" transform="translate(0,0)"/>
<path d="M0 0 C3.68815685 2.71810758 6.87947859 5.65157534 10 9 C10.60585938 9.64582031 11.21171875 10.29164062 11.8359375 10.95703125 C20.56417627 20.728401 23.79451153 32.21263873 23.37890625 45.23046875 C21.96399847 59.30661319 16.03581899 71.9382607 5 81 C2.42407887 82.85404001 -0.22490471 84.46302415 -3 86 C-3.6496875 86.37125 -4.299375 86.7425 -4.96875 87.125 C-15.75374312 92.94547248 -27.94032413 93.69575643 -39.6875 90.375 C-52.10144637 86.1025708 -63.34427469 78.4462847 -69.71484375 66.734375 C-75.55163561 54.31566891 -77.37141355 39.95664873 -73.9375 26.5 C-68.93862106 13.05231159 -59.11628386 3.17018938 -46.53125 -3.26171875 C-31.94019493 -9.23650423 -13.49825296 -8.0233221 0 0 Z " fill="#C61E39" transform="translate(260,24)"/>
<path d="M0 0 C1.34191406 -0.0309375 1.34191406 -0.0309375 2.7109375 -0.0625 C8.88231911 -0.09838013 13.90787033 0.92954884 19.625 3.25 C19.625 3.91 19.625 4.57 19.625 5.25 C20.470625 5.25 21.31625 5.25 22.1875 5.25 C27.28738432 6.73360271 29.42528758 10.17966816 32.625 14.25 C33.60206976 15.37682166 34.58096911 16.50206212 35.5625 17.625 C37.625 20.25 37.625 20.25 37.625 22.25 C38.285 22.25 38.945 22.25 39.625 22.25 C39.75777344 22.88808594 39.89054688 23.52617188 40.02734375 24.18359375 C40.29224609 25.42302734 40.29224609 25.42302734 40.5625 26.6875 C40.82353516 27.92306641 40.82353516 27.92306641 41.08984375 29.18359375 C41.43252994 31.22661204 41.43252994 31.22661204 42.625 32.25 C42.72479693 34.12938339 42.75580714 36.01250114 42.7578125 37.89453125 C42.75910156 39.04630859 42.76039063 40.19808594 42.76171875 41.38476562 C42.75785156 42.59841797 42.75398437 43.81207031 42.75 45.0625 C42.75386719 46.26455078 42.75773438 47.46660156 42.76171875 48.70507812 C42.76042969 49.86072266 42.75914062 51.01636719 42.7578125 52.20703125 C42.75668457 53.26897705 42.75555664 54.33092285 42.75439453 55.42504883 C42.64214418 57.87570699 42.33320432 59.91334771 41.625 62.25 C40.635 62.25 39.645 62.25 38.625 62.25 C38.7075 63.095625 38.79 63.94125 38.875 64.8125 C38.63186494 68.15560712 38.30632035 69.11291521 36.625 71.8125 C34.682931 75.15043109 34.17242827 76.51628323 34.625 80.25 C35.40875 80.476875 36.1925 80.70375 37 80.9375 C39.625 82.25 39.625 82.25 40.9375 84.875 C41.164375 85.65875 41.39125 86.4425 41.625 87.25 C40.34437515 88.9574998 39.00732443 90.62373596 37.625 92.25 C36.965 92.25 36.305 92.25 35.625 92.25 C35.625 92.91 35.625 93.57 35.625 94.25 C33.4375 94.5625 33.4375 94.5625 30.625 94.25 C28.93737149 92.6045622 27.2709651 90.93711423 25.625 89.25 C21.38014626 87.79876795 18.80535633 88.64525116 14.6875 90.1875 C4.29963394 93.58353314 -5.88369689 92.95743306 -16.375 90.25 C-16.375 89.59 -16.375 88.93 -16.375 88.25 C-17.426875 88.1675 -18.47875 88.085 -19.5625 88 C-23.7066273 87.18476184 -25.45973367 86.25100945 -28.375 83.25 C-29.1875 81 -29.1875 81 -29.375 79.25 C-30.035 79.25 -30.695 79.25 -31.375 79.25 C-31.375 78.59 -31.375 77.93 -31.375 77.25 C-32.035 77.25 -32.695 77.25 -33.375 77.25 C-35.375 74.25 -35.375 74.25 -35.375 71.25 C-35.99375 71.023125 -36.6125 70.79625 -37.25 70.5625 C-40.12192872 68.78866167 -40.46062652 67.4854754 -41.375 64.25 C-43.35924808 50.99754021 -45.43159445 31.94145149 -37.390625 20.40234375 C-36.72546875 19.69207031 -36.0603125 18.98179688 -35.375 18.25 C-34.715 18.25 -34.055 18.25 -33.375 18.25 C-33.16875 17.569375 -32.9625 16.88875 -32.75 16.1875 C-30.13082351 10.59198658 -26.05524927 5.85984426 -20.375 3.25 C-19.385 3.25 -18.395 3.25 -17.375 3.25 C-17.375 2.59 -17.375 1.93 -17.375 1.25 C-11.56374011 0.26288188 -5.88938518 0.03365363 0 0 Z " fill="#C8233E" transform="translate(710.375,20.75)"/>
<path d="M0 0 C0.77150391 -0.01160156 1.54300781 -0.02320312 2.33789062 -0.03515625 C4.57421875 -0.0234375 4.57421875 -0.0234375 8.3125 0.375 C10.164191 3.1525365 10.81824243 4.77288526 11.609375 7.92578125 C11.95983887 9.29959961 11.95983887 9.29959961 12.31738281 10.70117188 C12.56327148 11.68666016 12.80916016 12.67214844 13.0625 13.6875 C13.5926598 15.7672053 14.12393985 17.8466253 14.65625 19.92578125 C14.92824219 20.99135254 15.20023437 22.05692383 15.48046875 23.15478516 C16.794616 28.24093604 18.17457759 33.30856466 19.5625 38.375 C19.80838867 39.27516846 20.05427734 40.17533691 20.30761719 41.1027832 C21.61316151 45.86892036 22.94468527 50.62636019 24.3125 55.375 C26.7875 54.88 26.7875 54.88 29.3125 54.375 C29.55484375 53.3334375 29.7971875 52.291875 30.046875 51.21875 C31.12438724 46.60153939 32.21636508 41.98782086 33.3125 37.375 C33.47266602 36.69743652 33.63283203 36.01987305 33.79785156 35.32177734 C35.78782778 26.94993473 38.04319402 18.68430095 40.5 10.4375 C40.89324463 9.11238403 40.89324463 9.11238403 41.29443359 7.76049805 C41.5414502 6.94363525 41.7884668 6.12677246 42.04296875 5.28515625 C42.26364014 4.55433838 42.48431152 3.82352051 42.71166992 3.07055664 C43.3125 1.375 43.3125 1.375 44.3125 0.375 C48.28525815 0.12243123 52.27016175 0.18977549 56.25 0.1875 C57.37341797 0.17525391 58.49683594 0.16300781 59.65429688 0.15039062 C61.26208008 0.14749023 61.26208008 0.14749023 62.90234375 0.14453125 C64.38528931 0.13836792 64.38528931 0.13836792 65.89819336 0.13208008 C68.3125 0.375 68.3125 0.375 70.3125 2.375 C70.50573505 5.05013013 70.57477972 7.62130369 70.55541992 10.29711914 C70.55731827 11.11510483 70.55921661 11.93309052 70.56117249 12.77586365 C70.56488591 15.48739112 70.5541689 18.19865247 70.54296875 20.91015625 C70.54177726 22.7882026 70.54132372 24.66624955 70.5415802 26.54429626 C70.54001441 30.48277509 70.5317168 34.42116315 70.51831055 38.35961914 C70.5013089 43.41969527 70.49749648 48.47967164 70.49825573 53.53977299 C70.49798443 57.4180955 70.49250983 61.29639601 70.48525429 65.17471123 C70.48206203 67.0411201 70.48009892 68.90753149 70.47936058 70.77394295 C70.47720355 73.37676409 70.46847359 75.97947726 70.45776367 78.58227539 C70.45821686 79.36100006 70.45867004 80.13972473 70.45913696 80.94204712 C70.42697464 86.26052536 70.42697464 86.26052536 69.3125 87.375 C66.80113896 87.47475032 64.32346585 87.51382183 61.8125 87.5 C61.10996094 87.50386719 60.40742188 87.50773437 59.68359375 87.51171875 C54.43911378 87.50161378 54.43911378 87.50161378 53.3125 86.375 C53.15208807 83.27414779 53.05286598 80.19312421 52.99609375 77.08984375 C52.9649221 75.69361534 52.9649221 75.69361534 52.93312073 74.2691803 C52.86752069 71.28369818 52.80869198 68.29812516 52.75 65.3125 C52.7068247 63.29361024 52.66321075 61.2747298 52.61914062 59.25585938 C52.51182871 54.29566703 52.41059112 49.33538291 52.3125 44.375 C50.3325 43.88 50.3325 43.88 48.3125 43.375 C45.67456334 49.70604799 44.04481911 56.19182336 42.42578125 62.8359375 C41.20625267 67.84055433 39.92422771 72.82804447 38.625 77.8125 C38.41053223 78.6475708 38.19606445 79.4826416 37.97509766 80.34301758 C36.42875135 86.25874865 36.42875135 86.25874865 35.3125 87.375 C32.50362437 87.58196978 29.74962434 87.69945528 26.9375 87.75 C25.76574219 87.80607422 25.76574219 87.80607422 24.5703125 87.86328125 C22.38339019 87.89698382 20.44907807 87.84507587 18.3125 87.375 C15.12370853 83.94591264 14.38869371 79.47778238 13.375 75 C13.03633312 73.57393875 12.69645925 72.14816368 12.35546875 70.72265625 C12.18450684 70.00094238 12.01354492 69.27922852 11.83740234 68.53564453 C11.01559687 65.15286385 10.10151155 61.79631017 9.1875 58.4375 C7.75294435 53.10592311 6.44984067 47.77736818 5.3125 42.375 C3.6625 43.035 2.0125 43.695 0.3125 44.375 C0.28744385 45.64206787 0.2623877 46.90913574 0.23657227 48.21459961 C0.14268004 52.89797779 0.04241565 57.5812013 -0.05981445 62.2644043 C-0.10323241 64.29464104 -0.14490226 66.32491592 -0.18481445 68.35522461 C-0.24235146 71.26688151 -0.30609278 74.17834514 -0.37109375 77.08984375 C-0.39616249 78.46014992 -0.39616249 78.46014992 -0.42173767 79.85813904 C-0.57362829 86.26112829 -0.57362829 86.26112829 -1.6875 87.375 C-3.99743382 87.50057162 -6.31168536 87.55075729 -8.625 87.5625 C-9.89214844 87.57667969 -11.15929687 87.59085937 -12.46484375 87.60546875 C-15.6875 87.375 -15.6875 87.375 -17.6875 85.375 C-17.95492554 82.33430481 -17.95492554 82.33430481 -17.97802734 78.37426758 C-17.98474457 77.65370178 -17.99146179 76.93313599 -17.99838257 76.19073486 C-18.01743229 73.80026408 -18.02129096 71.4100733 -18.0234375 69.01953125 C-18.02986325 67.3576394 -18.03659144 65.6957487 -18.04360962 64.03385925 C-18.05560168 60.5442747 -18.05928874 57.05478926 -18.05810547 53.56518555 C-18.05790277 49.10407715 -18.08514444 44.64360938 -18.11964989 40.18265247 C-18.14195006 36.74671035 -18.14594197 33.31092124 -18.14488602 29.87491417 C-18.14723961 28.23114513 -18.15604956 26.58737172 -18.17155075 24.94367409 C-18.19126396 22.63623743 -18.1853519 20.33016622 -18.17333984 18.02270508 C-18.17618988 16.71191483 -18.17903992 15.40112457 -18.18197632 14.0506134 C-17.47713378 8.81127515 -15.54939631 4.98974193 -11.48046875 1.4609375 C-7.6006958 -0.04756163 -4.12623183 -0.06299591 0 0 Z " fill="#900C23" transform="translate(331.6875,22.625)"/>
<path d="M0 0 C0.93810013 -0.00960754 1.87620026 -0.01921509 2.84272766 -0.02911377 C3.85006454 -0.03336365 4.85740143 -0.03761353 5.89526367 -0.04199219 C6.93841232 -0.04769226 7.98156097 -0.05339233 9.05632019 -0.05926514 C11.26279692 -0.06870593 13.46928769 -0.07524546 15.67578125 -0.07910156 C19.04020972 -0.08880082 22.40402554 -0.11983087 25.76831055 -0.15136719 C27.9147913 -0.1578983 30.06127642 -0.16314834 32.20776367 -0.16699219 C33.20902786 -0.17933899 34.21029205 -0.19168579 35.24189758 -0.20440674 C41.02727025 -0.18608332 45.16092454 0.33257264 50.25073242 3.16113281 C52.50073242 5.72363281 52.50073242 5.72363281 54.25073242 8.16113281 C55.24073242 8.82113281 56.23073242 9.48113281 57.25073242 10.16113281 C60.9329462 15.68445349 60.87429206 23.71768322 60.25073242 30.16113281 C59.43343482 33.56337168 58.40841983 36.86034551 57.25073242 40.16113281 C56.59073242 40.16113281 55.93073242 40.16113281 55.25073242 40.16113281 C54.92073242 41.15113281 54.59073242 42.14113281 54.25073242 43.16113281 C52.68823242 44.84863281 52.68823242 44.84863281 51.25073242 46.16113281 C51.68385742 46.69222656 52.11698242 47.22332031 52.56323242 47.77050781 C53.12010742 48.47691406 53.67698242 49.18332031 54.25073242 49.91113281 C54.80760742 50.60722656 55.36448242 51.30332031 55.93823242 52.02050781 C57.25073242 54.16113281 57.25073242 54.16113281 57.25073242 58.16113281 C57.91073242 58.16113281 58.57073242 58.16113281 59.25073242 58.16113281 C59.58073242 68.06113281 59.91073242 77.96113281 60.25073242 88.16113281 C53.98073242 88.16113281 47.71073242 88.16113281 41.25073242 88.16113281 C41.25073242 87.50113281 41.25073242 86.84113281 41.25073242 86.16113281 C40.59073242 86.16113281 39.93073242 86.16113281 39.25073242 86.16113281 C39.2361499 85.42999268 39.22156738 84.69885254 39.20654297 83.94555664 C39.13190332 80.6210591 39.03529441 77.29754814 38.93823242 73.97363281 C38.90439453 72.24790039 38.90439453 72.24790039 38.86987305 70.48730469 C38.83442383 69.37548828 38.79897461 68.26367188 38.76245117 67.11816406 C38.73626709 66.09698486 38.71008301 65.07580566 38.68310547 64.02368164 C38.18571296 60.73066799 37.2523977 58.80925834 35.25073242 56.16113281 C32.13929675 55.12398759 29.75605147 54.9608142 26.48901367 54.84472656 C24.81162109 54.78188477 24.81162109 54.78188477 23.1003418 54.71777344 C21.9330957 54.67845703 20.76584961 54.63914063 19.56323242 54.59863281 C18.38438477 54.55544922 17.20553711 54.51226562 15.9909668 54.46777344 C13.07767359 54.36162105 10.16429485 54.25957039 7.25073242 54.16113281 C7.25858765 55.69821899 7.25858765 55.69821899 7.26660156 57.26635742 C7.28465211 61.05508557 7.29616462 64.8438099 7.30566406 68.63256836 C7.31070416 70.27482746 7.3175362 71.91708205 7.32617188 73.55932617 C7.33825168 75.9148876 7.34396381 78.2703899 7.34838867 80.62597656 C7.35354996 81.36452377 7.35871124 82.10307098 7.36402893 82.86399841 C7.36422492 84.63011369 7.31267961 86.39610427 7.25073242 88.16113281 C6.25073242 89.16113281 6.25073242 89.16113281 4.48486328 89.2746582 C3.73599854 89.26942139 2.98713379 89.26418457 2.21557617 89.25878906 C1.40668945 89.25556641 0.59780273 89.25234375 -0.2355957 89.24902344 C-1.08573242 89.24064453 -1.93586914 89.23226562 -2.81176758 89.22363281 C-3.66577148 89.21912109 -4.51977539 89.21460937 -5.3996582 89.20996094 C-7.51622421 89.19813655 -9.63275443 89.1802005 -11.74926758 89.16113281 C-11.81882941 78.57332732 -11.87211032 67.98557635 -11.90470409 57.39758873 C-11.9203488 52.48096002 -11.94156534 47.56448785 -11.97558594 42.64794922 C-12.00822188 37.90172414 -12.02612958 33.15564948 -12.03389931 28.40932083 C-12.0394352 26.60004942 -12.0502455 24.79078607 -12.06645775 22.98157883 C-12.08828841 20.4440823 -12.09123216 17.90720449 -12.08984375 15.36962891 C-12.10062958 14.62444 -12.11141541 13.8792511 -12.12252808 13.11148071 C-12.09476799 8.41158615 -11.40270325 5.07436081 -8.74926758 1.16113281 C-5.94927813 -0.11978434 -3.05697891 0.02537083 0 0 Z " fill="#C71F3A" transform="translate(877.749267578125,22.8388671875)"/>
<path d="M0 0 C1.27272766 -0.01441132 1.27272766 -0.01441132 2.57116699 -0.02911377 C3.49192017 -0.03336365 4.41267334 -0.03761353 5.36132812 -0.04199219 C6.78644714 -0.0505423 6.78644714 -0.0505423 8.24035645 -0.05926514 C10.25788253 -0.06872681 12.27542415 -0.07525373 14.29296875 -0.07910156 C17.35249707 -0.08874091 20.41133448 -0.11972537 23.47070312 -0.15136719 C25.43424082 -0.15790403 27.39778331 -0.16315182 29.36132812 -0.16699219 C30.71816711 -0.18551239 30.71816711 -0.18551239 32.10241699 -0.20440674 C39.80061695 -0.17796403 46.69519027 1.14796268 53.26757812 5.28613281 C59.51637567 12.13005393 60.50853645 18.70332186 60.21289062 27.84863281 C59.53203788 34.88964656 57.39592334 39.48328938 51.89257812 44.16113281 C50.90257812 44.82113281 49.91257813 45.48113281 48.89257812 46.16113281 C49.84132812 46.75925781 50.79007813 47.35738281 51.76757812 47.97363281 C55.4525821 50.55313559 56.67914948 51.99494754 57.49023438 56.42675781 C57.6544919 57.75376359 57.80887068 59.08201722 57.95507812 60.41113281 C58.03814209 61.11262451 58.12120605 61.81411621 58.20678711 62.53686523 C58.91112429 68.72907635 59.32246783 74.92697389 59.64648438 81.14941406 C59.77624056 84.2086467 59.77624056 84.2086467 60.89257812 87.16113281 C57.7677525 87.24800778 54.64323567 87.3014785 51.51757812 87.34863281 C50.628125 87.37376953 49.73867187 87.39890625 48.82226562 87.42480469 C47.54609375 87.43930664 47.54609375 87.43930664 46.24414062 87.45410156 C45.45861816 87.46981201 44.6730957 87.48552246 43.86376953 87.50170898 C43.21327637 87.38931885 42.5627832 87.27692871 41.89257812 87.16113281 C39.74381366 83.93798612 39.6368693 82.98963111 39.58398438 79.26660156 C39.55884766 78.31076172 39.53371094 77.35492188 39.5078125 76.37011719 C39.47286185 74.36757419 39.44156796 72.36496378 39.4140625 70.36230469 C39.26451505 64.93117905 39.0251255 60.81762215 35.89257812 56.16113281 C33.21045002 54.82006876 31.00859781 54.94662863 28.00976562 54.84472656 C26.95901855 54.80661865 25.90827148 54.76851074 24.82568359 54.72924805 C23.48650879 54.68614502 22.14733398 54.64304199 20.76757812 54.59863281 C16.51882812 54.45425781 12.27007812 54.30988281 7.89257812 54.16113281 C7.89257812 65.05113281 7.89257812 75.94113281 7.89257812 87.16113281 C1.95257813 87.16113281 -3.98742187 87.16113281 -10.10742188 87.16113281 C-10.1978081 76.68641206 -10.27118693 66.21195053 -10.31467056 55.73692799 C-10.33554104 50.87289244 -10.36384887 46.00913764 -10.40917969 41.14526367 C-10.45265663 36.45090159 -10.47656304 31.75680947 -10.48693085 27.06226158 C-10.4943189 25.27168211 -10.50874613 23.48111733 -10.5303421 21.69065285 C-10.55940113 19.18154658 -10.56337691 16.67355425 -10.56152344 14.16430664 C-10.57590454 13.4248732 -10.59028564 12.68543976 -10.60510254 11.92359924 C-10.57602129 8.28269071 -10.20376501 6.3098298 -8.20404053 3.22343445 C-5.35868861 0.42465466 -3.86905521 0.03536289 0 0 Z " fill="#910D24" transform="translate(92.107421875,22.8388671875)"/>
<path d="M0 0 C1.14726563 -0.00257812 2.29453125 -0.00515625 3.4765625 -0.0078125 C6.375 0.125 6.375 0.125 8.375 1.125 C9.2265625 3.19140625 9.2265625 3.19140625 10 5.6875 C10.39058594 6.92693359 10.39058594 6.92693359 10.7890625 8.19140625 C10.98242188 8.82949219 11.17578125 9.46757813 11.375 10.125 C12.035 10.125 12.695 10.125 13.375 10.125 C13.375 11.115 13.375 12.105 13.375 13.125 C14.035 13.125 14.695 13.125 15.375 13.125 C15.705 15.105 16.035 17.085 16.375 19.125 C17.035 19.125 17.695 19.125 18.375 19.125 C18.72691406 19.86363281 19.07882812 20.60226563 19.44140625 21.36328125 C22.54858987 27.74801627 25.90767836 33.75149944 29.859375 39.65234375 C31.34879421 42.08224674 32.33062963 44.48228888 33.375 47.125 C34.179375 47.8365625 34.179375 47.8365625 35 48.5625 C36.375 50.125 36.375 50.125 36.5625 53.3125 C36.4696875 54.7046875 36.4696875 54.7046875 36.375 56.125 C38.355 56.785 40.335 57.445 42.375 58.125 C42.375 38.985 42.375 19.845 42.375 0.125 C47.985 0.125 53.595 0.125 59.375 0.125 C59.375 29.165 59.375 58.205 59.375 88.125 C53.435 88.125 47.495 88.125 41.375 88.125 C41.375 87.135 41.375 86.145 41.375 85.125 C40.77816406 84.86847656 40.18132813 84.61195312 39.56640625 84.34765625 C33.47920946 80.95141277 30.70152095 74.21293333 28.8203125 67.8125 C28.67335938 67.255625 28.52640625 66.69875 28.375 66.125 C27.715 66.125 27.055 66.125 26.375 66.125 C26.12105469 65.49851562 25.86710938 64.87203125 25.60546875 64.2265625 C25.26128906 63.40929687 24.91710937 62.59203125 24.5625 61.75 C24.22605469 60.93789062 23.88960937 60.12578125 23.54296875 59.2890625 C22.43060918 56.82352542 22.43060918 56.82352542 19.375 55.125 C18.4626203 52.82293085 17.86119785 50.51115272 17.21875 48.12109375 C16.80109375 47.13302734 16.80109375 47.13302734 16.375 46.125 C14.89 45.63 14.89 45.63 13.375 45.125 C10.32224129 40.29967172 7.93459583 35.24419166 5.375 30.125 C5.045 49.265 4.715 68.405 4.375 88.125 C-1.565 88.125 -7.505 88.125 -13.625 88.125 C-13.69271741 77.22457996 -13.74778232 66.32429913 -13.78043652 55.42371655 C-13.79610713 50.36239509 -13.81737087 45.30122472 -13.85131836 40.23999023 C-13.88386203 35.35761844 -13.90184249 30.47539217 -13.90963173 25.5929203 C-13.91518422 23.72813945 -13.92602662 21.86336676 -13.94219017 19.99864769 C-13.96389822 17.39109318 -13.96696973 14.78414368 -13.96557617 12.17651367 C-13.976362 11.40183746 -13.98714783 10.62716125 -13.9982605 9.82901001 C-13.96793718 4.60173591 -13.96793718 4.60173591 -12.21455383 2.16426086 C-8.42157282 -0.31561534 -4.41828 -0.00997354 0 0 Z " fill="#C7223D" transform="translate(599.625,22.875)"/>
<path d="M0 0 C0.7714032 -0.00938095 1.5428064 -0.0187619 2.33758545 -0.02842712 C3.56895233 -0.01157616 3.56895233 -0.01157616 4.82519531 0.00561523 C5.68461731 0.00416 6.54403931 0.00270477 7.42950439 0.00120544 C9.24502963 0.00286191 11.06056928 0.01439494 12.87597656 0.03515625 C15.63050275 0.0639703 18.38308487 0.05578781 21.13769531 0.04272461 C22.90853787 0.04896731 24.6793744 0.05736239 26.45019531 0.06811523 C27.66941681 0.06371178 27.66941681 0.06371178 28.91326904 0.05921936 C37.25858593 0.19423447 44.32504462 2.20112023 50.46972656 7.96264648 C56.87791784 14.84228508 57.28927802 22.81908469 57.15722656 31.79858398 C56.83530943 36.4936216 55.9280263 40.27390883 53.90332031 44.50170898 C53.42894531 45.55358398 52.95457031 46.60545898 52.46582031 47.68920898 C47.60637367 53.02274799 41.26089553 56.07312375 34.1105957 56.98583984 C30.10425643 57.0893173 26.15869504 57.02687731 22.15332031 56.87670898 C17.45082031 56.75295898 12.74832031 56.62920898 7.90332031 56.50170898 C7.90332031 66.73170898 7.90332031 76.96170898 7.90332031 87.50170898 C2.29332031 87.50170898 -3.31667969 87.50170898 -9.09667969 87.50170898 C-9.20959956 76.74895748 -9.30134892 65.99659914 -9.35574055 55.24338913 C-9.38184464 50.25033304 -9.41725756 45.25770328 -9.47387695 40.26489258 C-9.52816771 35.44732723 -9.5580941 30.63017216 -9.5710659 25.81232452 C-9.58031108 23.97344756 -9.59836487 22.13459329 -9.62532997 20.29589081 C-9.66158222 17.72174909 -9.66662679 15.14930671 -9.66430664 12.57495117 C-9.69127121 11.43235588 -9.69127121 11.43235588 -9.71878052 10.26667786 C-9.68199985 6.50009462 -9.40805782 4.839559 -6.81724548 2.02848816 C-4.21479945 0.5679977 -2.9220605 0.00072218 0 0 Z " fill="#900C23" transform="translate(17.0966796875,22.498291015625)"/>
<path d="M0 0 C6.27 0 12.54 0 19 0 C19.04521516 8.77974122 19.08189562 17.55940488 19.10362434 26.33923626 C19.11405392 30.41622436 19.12819802 34.49312855 19.15087891 38.57006836 C19.17263677 42.50579972 19.18457484 46.44145045 19.18975449 50.37723732 C19.19344496 51.87751344 19.20065155 53.37778524 19.21146011 54.87802696 C19.22601431 56.98217624 19.22797632 59.08599389 19.22705078 61.19018555 C19.231492 62.38709518 19.23593323 63.58400482 19.24050903 64.81718445 C19.00285056 67.96227666 18.34569977 70.16831492 17 73 C16.34 73 15.68 73 15 73 C14.9071875 74.051875 14.9071875 74.051875 14.8125 75.125 C13.69219429 79.08915867 11.83933474 81.02216113 9 84 C8.34 84 7.68 84 7 84 C7 84.66 7 85.32 7 86 C-1.22396456 90.20760978 -6.98326699 91.3891979 -16.1875 91.4375 C-17.81655273 91.48680664 -17.81655273 91.48680664 -19.47851562 91.53710938 C-28.53155125 91.59691922 -35.08350321 89.41651847 -41.9375 83.4375 C-42.618125 82.633125 -43.29875 81.82875 -44 81 C-44.8971875 79.948125 -44.8971875 79.948125 -45.8125 78.875 C-47 77 -47 77 -47 74 C-47.99 73.67 -48.98 73.34 -50 73 C-53.30938413 66.38123175 -52.17565865 56.71661673 -52.203125 49.484375 C-52.20882507 48.31038147 -52.21452515 47.13638794 -52.22039795 45.92681885 C-52.22979772 43.45935963 -52.2363618 40.99188814 -52.24023438 38.52441406 C-52.25000562 34.74782829 -52.28110309 30.97177239 -52.3125 27.1953125 C-52.31902478 24.79166988 -52.32427731 22.3880234 -52.328125 19.984375 C-52.3404718 18.85723083 -52.3528186 17.73008667 -52.36553955 16.56878662 C-52.36253845 15.5170929 -52.35953735 14.46539917 -52.35644531 13.38183594 C-52.36009094 12.46078064 -52.36373657 11.53972534 -52.36749268 10.59075928 C-51.91826287 7.42376748 -50.8737556 5.57523783 -49 3 C-45.36804504 0.57869669 -43.61650652 0.78977215 -39.3125 0.875 C-38.13300781 0.89304687 -36.95351563 0.91109375 -35.73828125 0.9296875 C-34.38283203 0.96449219 -34.38283203 0.96449219 -33 1 C-32.99120064 2.16391769 -32.99120064 2.16391769 -32.98222351 3.35134888 C-32.92422282 10.67833449 -32.85210438 18.00498291 -32.76428509 25.33166695 C-32.7196342 29.09804249 -32.6803668 32.86431118 -32.65356445 36.63085938 C-32.62747823 40.2685524 -32.58703919 43.90583311 -32.53681374 47.54327011 C-32.52018077 48.92821991 -32.50864428 50.31324098 -32.50238609 51.69827652 C-32.49270698 53.64418174 -32.46291844 55.589955 -32.43237305 57.53564453 C-32.42126999 58.64150909 -32.41016693 59.74737366 -32.39872742 60.88674927 C-31.94360859 64.44030227 -30.6945382 66.86973946 -29 70 C-29 70.66 -29 71.32 -29 72 C-27.2984375 72.2165625 -27.2984375 72.2165625 -25.5625 72.4375 C-22 73 -22 73 -21 74 C-15.50962576 74.44460658 -9.98464028 74.55310844 -5 72 C-3.15565651 69.53884453 -3.15565651 69.53884453 -2 67 C-1.67 66.67 -1.34 66.34 -1 66 C-0.87619162 63.94521547 -0.82201797 61.8862104 -0.79467773 59.82788086 C-0.78477814 59.18399918 -0.77487854 58.54011749 -0.76467896 57.87672424 C-0.73298472 55.73946869 -0.70827551 53.60219087 -0.68359375 51.46484375 C-0.66303104 49.98653064 -0.64203476 48.50822351 -0.62062073 47.02992249 C-0.56532941 43.13207829 -0.51595143 39.23418042 -0.46777344 35.33624268 C-0.41760981 31.36148277 -0.36189699 27.38680116 -0.30664062 23.41210938 C-0.19897274 15.60813726 -0.09805968 7.80409985 0 0 Z " fill="#C8243F" transform="translate(812,22)"/>
<path d="M0 0 C1.16097702 0.00015106 2.32195404 0.00030212 3.51811218 0.00045776 C4.77130753 0.01078033 6.02450287 0.02110291 7.31567383 0.03173828 C8.59879959 0.03456818 9.88192535 0.03739807 11.20393372 0.04031372 C14.6119671 0.04794281 18.01982949 0.06758491 21.42779541 0.08972168 C24.90667406 0.11019581 28.38558039 0.11931878 31.86450195 0.12939453 C38.68813982 0.1508316 45.51166423 0.18495873 52.33520508 0.22705078 C52.36205603 2.70628879 52.38197055 5.18523918 52.39770508 7.66455078 C52.40608398 8.37160156 52.41446289 9.07865234 52.4230957 9.80712891 C52.43174095 11.61398638 52.38740519 13.42092681 52.33520508 15.22705078 C51.33520508 16.22705078 51.33520508 16.22705078 49.50657654 16.3473053 C48.70937698 16.34508469 47.91217743 16.34286407 47.09082031 16.34057617 C46.18996201 16.34050064 45.2891037 16.34042511 44.36094666 16.34034729 C43.38178787 16.335186 42.40262909 16.33002472 41.39379883 16.32470703 C40.39639175 16.32329208 39.39898468 16.32187714 38.37135315 16.32041931 C35.17177384 16.31480192 31.97226339 16.30224649 28.77270508 16.28955078 C26.60929463 16.28453802 24.44588308 16.27997473 22.2824707 16.27587891 C16.96668878 16.26482684 11.65095862 16.24755057 6.33520508 16.22705078 C6.33520508 22.16705078 6.33520508 28.10705078 6.33520508 34.22705078 C17.55520508 34.22705078 28.77520508 34.22705078 40.33520508 34.22705078 C40.33520508 38.18705078 40.33520508 42.14705078 40.33520508 46.22705078 C35.45521955 49.88703993 33.0402313 50.35242649 27.13598633 50.32470703 C25.92749023 50.32148437 24.71899414 50.31826172 23.47387695 50.31494141 C21.57992187 50.30237305 21.57992187 50.30237305 19.64770508 50.28955078 C17.73634766 50.2827832 17.73634766 50.2827832 15.78637695 50.27587891 C12.63596638 50.26407962 9.48557989 50.24614396 6.33520508 50.22705078 C6.66520508 57.15705078 6.99520508 64.08705078 7.33520508 71.22705078 C22.18520508 71.55705078 37.03520508 71.88705078 52.33520508 72.22705078 C52.33520508 77.50705078 52.33520508 82.78705078 52.33520508 88.22705078 C31.21520508 88.22705078 10.09520508 88.22705078 -11.66479492 88.22705078 C-11.66479492 61.16705078 -11.66479492 34.10705078 -11.66479492 6.22705078 C-11.00479492 6.22705078 -10.34479492 6.22705078 -9.66479492 6.22705078 C-9.56166992 5.60830078 -9.45854492 4.98955078 -9.35229492 4.35205078 C-7.84963108 -0.29254655 -4.18528708 -0.01815743 0 0 Z " fill="#C7203C" transform="translate(525.664794921875,22.77294921875)"/>
<path d="M0 0 C0.94294922 -0.02900391 1.88589844 -0.05800781 2.85742188 -0.08789062 C12.21275561 -0.1714778 20.00606608 2.35154878 26.91015625 8.80078125 C31.9829225 14.26919501 32.45123106 19.09848476 32.3125 26.3125 C28.60830349 28.16459825 24.35571138 27.77239134 20.3125 27.3125 C17.13293101 25.44623125 15.53634665 23.60629872 13.3125 20.6875 C10.23664563 17.03492294 7.4243843 16.41643701 2.71875 15.9765625 C1.4296875 15.96367188 0.140625 15.95078125 -1.1875 15.9375 C-2.4765625 15.90914062 -3.765625 15.88078125 -5.09375 15.8515625 C-9.23246865 16.38239815 -10.8610728 17.28380494 -13.6875 20.3125 C-14.4173031 24.42355744 -14.4173031 24.42355744 -13.6875 28.3125 C-8.44448342 33.92130844 -2.4999901 35.44093338 4.75 37.125 C27.25382499 42.59883309 27.25382499 42.59883309 33.3125 49.3125 C36.11171493 53.9305285 36.82985436 57.8718403 36.75 63.1875 C36.74170166 63.89567871 36.73340332 64.60385742 36.72485352 65.33349609 C36.48197544 72.83765085 34.57416584 77.33942829 29.3125 82.5625 C20.66099952 89.14555442 11.63163885 89.67499248 1.125 89.75 C0.10349854 89.76015137 -0.91800293 89.77030273 -1.97045898 89.78076172 C-12.02888016 89.66491325 -20.3365782 87.44672796 -27.6875 80.3125 C-31.10886218 75.80482994 -34.01178504 70.23106532 -33.375 64.5 C-32.6875 62.3125 -32.6875 62.3125 -31.6875 61.3125 C-29.40156683 61.10787683 -27.10676263 60.99849267 -24.8125 60.9375 C-22.92917969 60.86402344 -22.92917969 60.86402344 -21.0078125 60.7890625 C-17.6875 61.3125 -17.6875 61.3125 -15.8515625 63.671875 C-15.46742188 64.54328125 -15.08328125 65.4146875 -14.6875 66.3125 C-11.7835751 70.66838735 -8.79037336 73.09797848 -3.6875 74.3125 C3.30020022 75.07384644 8.9983295 74.4121837 15.3125 71.3125 C17.27305709 68.37166436 17.62464545 67.63122048 17.6875 64.3125 C17.73003906 63.2915625 17.73003906 63.2915625 17.7734375 62.25 C17.46040681 60.14910405 17.46040681 60.14910405 15.55859375 58.65234375 C13.34495923 57.33186264 11.47614814 56.56353169 9 55.875 C8.12859375 55.6275 7.2571875 55.38 6.359375 55.125 C4.12321189 54.52868984 1.88299687 53.94752048 -0.359375 53.375 C-12.55477751 50.25911627 -23.63150063 46.99503418 -31.1875 36.125 C-34.2264985 30.14154962 -33.38485277 22.88398835 -31.6875 16.625 C-27.75886639 10.11820059 -23.04964288 3.9301508 -15.6875 1.3125 C-10.44808476 0.1000778 -5.35600886 0.05381121 0 0 Z " fill="#910E26" transform="translate(445.6875,21.6875)"/>
<path d="M0 0 C7.26 0 14.52 0 22 0 C26 10 26 10 26 12 C26.99 12.33 27.98 12.66 29 13 C30.88579937 16.21284338 32 18.24633583 32 22 C32.66 22 33.32 22 34 22 C34.09796875 22.59167969 34.1959375 23.18335937 34.296875 23.79296875 C35.25769801 28.87042139 36.2985201 32.17513744 40 36 C43.59743427 30.92126927 45.94366278 25.87280155 48.0625 20.0625 C48.31854004 19.36423096 48.57458008 18.66596191 48.83837891 17.9465332 C49.91795903 14.99001104 50.98899409 12.03045917 52.05859375 9.0703125 C52.36925781 8.28398437 52.67992187 7.49765625 53 6.6875 C53.2475 6.03136719 53.495 5.37523437 53.75 4.69921875 C55.74993531 1.98055669 57.8641644 1.18224606 61 0 C63.80830116 -0.32947514 66.55268937 -0.2870209 69.375 -0.1875 C70.11105469 -0.17396484 70.84710937 -0.16042969 71.60546875 -0.14648438 C73.40396743 -0.11144869 75.20208422 -0.05765288 77 0 C76.30532917 3.93646804 75.34776654 6.71312684 73 10 C72.34 10 71.68 10 71 10 C70.67 12.31 70.34 14.62 70 17 C69.34 17 68.68 17 68 17 C67.896875 17.87398437 67.79375 18.74796875 67.6875 19.6484375 C66.96397414 23.17562606 65.81218835 25.53208238 64 28.625 C62.17983293 31.74903676 60.67044715 34.4298689 60 38 C59.34 38 58.68 38 58 38 C57.81630859 38.85851563 57.81630859 38.85851563 57.62890625 39.734375 C56.97237132 42.09953191 56.06276488 44.07206797 54.9375 46.25 C54.57527344 46.95640625 54.21304688 47.6628125 53.83984375 48.390625 C53.56269531 48.92171875 53.28554688 49.4528125 53 50 C52.34 50 51.68 50 51 50 C49.99356232 54.22990358 49.7874973 58.37974123 49.68359375 62.70703125 C49.66281265 63.43242599 49.64203156 64.15782074 49.62062073 64.90519714 C49.55557785 67.20754113 49.49645227 69.50999282 49.4375 71.8125 C49.39427165 73.37956814 49.35065602 74.94662565 49.30664062 76.51367188 C49.19921904 80.34233945 49.09981058 84.17109627 49 88 C43.06 88 37.12 88 31 88 C30.99742187 85.67324219 30.99484375 83.34648438 30.9921875 80.94921875 C30.96927557 78.65861037 30.93627313 76.36834955 30.90234375 74.07788086 C30.88434084 72.50407279 30.87658633 70.93010876 30.87988281 69.35620117 C30.89254721 59.39881506 30.49622012 51.16710836 24 43 C23.01 42.34 22.02 41.68 21 41 C21 40.01 21 39.02 21 38 C20.34 38 19.68 38 19 38 C18.731875 36.88625 18.46375 35.7725 18.1875 34.625 C17.34190981 30.78159049 17.34190981 30.78159049 14 29 C12.96514123 26.68191636 11.9644586 24.34824702 11 22 C10.34 21.34 9.68 20.68 9 20 C9 18.68 9 17.36 9 16 C8.34 16 7.68 16 7 16 C6.74605469 15.40832031 6.49210938 14.81664062 6.23046875 14.20703125 C4.37590221 9.94916874 2.40977263 5.97612484 0 2 C0 1.34 0 0.68 0 0 Z " fill="#C7223D" transform="translate(948,23)"/>
<path d="M0 0 C0 0.66 0 1.32 0 2 C0.9075 1.938125 1.815 1.87625 2.75 1.8125 C6.29238832 2.01686856 7.52653696 2.52653696 10 5 C10 5.66 10 6.32 10 7 C10.66 7 11.32 7 12 7 C12.2475 7.5775 12.495 8.155 12.75 8.75 C13.8918301 11.11653922 13.8918301 11.11653922 16.0625 12.75 C21.28268589 18.81215136 19.27428495 31.20687057 18.84375 38.73046875 C18.49747265 42.52096905 18.1420792 44.7868812 16 48 C12.30201342 47.36241611 12.30201342 47.36241611 10.75 45.5 C7.88597485 43.0451213 4.69675715 43.30301288 1 43 C1 43.66 1 44.32 1 45 C-1.5 46.625 -1.5 46.625 -4 48 C-2.86762602 51.05740973 -1.40723311 52.57096393 1.125 54.5 C2.07375 55.325 3.0225 56.15 4 57 C4 58.32 4 59.64 4 61 C-13.90781832 62.03314336 -13.90781832 62.03314336 -19.125 58.125 C-20.8828125 56.5078125 -20.8828125 56.5078125 -22 55 C-22 54.34 -22 53.68 -22 53 C-22.66 53 -23.32 53 -24 53 C-24.33 51.02 -24.66 49.04 -25 47 C-25.66 47 -26.32 47 -27 47 C-31.08237369 40.19604385 -30.21470856 31.63749034 -30 24 C-29.98324219 23.27425781 -29.96648438 22.54851563 -29.94921875 21.80078125 C-29.54538233 16.11245688 -27.33146349 10.60657889 -24 6 C-21.83203125 5.21484375 -21.83203125 5.21484375 -20 5 C-20 4.34 -20 3.68 -20 3 C-13.45841601 -0.65111665 -7.36120371 -0.29887594 0 0 Z " fill="#FDF8F9" transform="translate(716,37)"/>
<path d="M0 0 C1.27230469 0.01804687 2.54460938 0.03609375 3.85546875 0.0546875 C5.31919922 0.08949219 5.31919922 0.08949219 6.8125 0.125 C6.83562241 11.58150016 6.85341457 23.03799481 6.86431217 34.49451351 C6.86954122 39.81365213 6.87663927 45.13277484 6.88793945 50.4519043 C6.89876755 55.58063985 6.90477667 60.70936006 6.90737724 65.83810616 C6.90923163 67.79941614 6.91285251 69.76072524 6.91823006 71.72202873 C6.92543946 74.45915447 6.92649099 77.19621597 6.92602539 79.93334961 C6.92962067 80.75261932 6.93321594 81.57188904 6.93692017 82.41598511 C6.92655216 88.01094784 6.92655216 88.01094784 5.8125 89.125 C4.46982587 89.21131874 3.12275678 89.23206473 1.77734375 89.22265625 C0.96845703 89.21943359 0.15957031 89.21621094 -0.67382812 89.21289062 C-1.52396484 89.20451172 -2.37410156 89.19613281 -3.25 89.1875 C-4.10400391 89.18298828 -4.95800781 89.17847656 -5.83789062 89.17382812 C-7.95445663 89.16200373 -10.07098685 89.14406769 -12.1875 89.125 C-12.2338488 78.5199001 -12.26938219 67.91482432 -12.29112434 57.30964375 C-12.30155969 52.38518508 -12.31571443 47.46079573 -12.33837891 42.53637695 C-12.36011604 37.7836813 -12.3720705 33.03105231 -12.37725449 28.27831078 C-12.38094867 26.46543516 -12.38816246 24.65256318 -12.39896011 22.83971596 C-12.41348656 20.29972078 -12.41547746 17.76000077 -12.41455078 15.2199707 C-12.42174133 14.47118652 -12.42893188 13.72240234 -12.43634033 12.95092773 C-12.42042171 8.91625704 -12.15927264 5.68613514 -10.1875 2.125 C-6.4507157 -0.36618953 -4.44298181 -0.0815226 0 0 Z " fill="#C61B37" transform="translate(852.1875,22.875)"/>
<path d="M0 0 C2.31713052 1.35846613 4.4923503 2.83407781 6.67578125 4.3984375 C8.90460296 5.93426422 11.16531693 7.12761624 13.5625 8.375 C15.53515625 9.56640625 15.53515625 9.56640625 17 11 C17.69973794 13.94771495 17.41549233 15.93574408 17 19 C19.01933377 20.05277626 20.92737396 20.97736331 23.10546875 21.65625 C25.87805877 22.77985121 27.16715855 23.58725259 29 26 C29.7772545 29.82958767 29.7791054 33.69273044 29.69995117 37.58789062 C29.67386218 39.77845837 29.65101013 41.83620482 30 44 C31.31960148 45.01805192 32.6529034 46.01861908 34 47 C34.29561076 49.87038052 34.37943016 52.33754745 34.25 55.1875 C34.23195313 55.93708984 34.21390625 56.68667969 34.1953125 57.45898438 C34.14824109 59.3065371 34.07649766 61.15343159 34 63 C32.35 63 30.7 63 29 63 C29 60.03 29 57.06 29 54 C27.68 53.34 26.36 52.68 25 52 C22.61421815 50.39978047 20.32037937 48.69566184 18 47 C17.67 52.28 17.34 57.56 17 63 C15.35 63 13.7 63 12 63 C12.02450981 62.10583374 12.02450981 62.10583374 12.04951477 61.19360352 C12.20738594 54.96327102 12.2732653 48.73667633 12.28686523 42.50439453 C12.30385242 40.18216573 12.34393933 37.85998255 12.40795898 35.53857422 C12.49623483 32.18983376 12.50011329 28.84970438 12.48828125 25.5 C12.53350418 24.4694751 12.57872711 23.4389502 12.62532043 22.37719727 C12.68733663 18.94392785 12.68733663 18.94392785 11 14 C4.565 10.04 4.565 10.04 -2 6 C-2.33 24.48 -2.66 42.96 -3 62 C-5.64 62 -8.28 62 -11 62 C-11 50.78 -11 39.56 -11 28 C-14.3 29.32 -17.6 30.64 -21 32 C-21.33 42.23 -21.66 52.46 -22 63 C-24.31 63 -26.62 63 -29 63 C-29 51.45 -29 39.9 -29 28 C-17 23 -17 23 -15 23 C-15.02618408 22.44014404 -15.05236816 21.88028809 -15.0793457 21.3034668 C-15.18332331 18.76509706 -15.2483205 16.22717447 -15.3125 13.6875 C-15.35439453 12.80642578 -15.39628906 11.92535156 -15.43945312 11.01757812 C-15.48573625 8.58308552 -15.47802257 6.38867214 -15 4 C-12.6015625 1.97265625 -12.6015625 1.97265625 -10 1 C-9.360625 0.5875 -8.72125 0.175 -8.0625 -0.25 C-4.89938878 -1.40022226 -3.23943102 -0.97794144 0 0 Z " fill="#FAEEF0" transform="translate(231,29)"/>
<path d="M0 0 C2.66666667 2 5.33333333 4 8 6 C8.74765625 6.51949219 9.4953125 7.03898437 10.265625 7.57421875 C10.83796875 8.04472656 11.4103125 8.51523438 12 9 C12 9.66 12 10.32 12 11 C12.99 11.33 13.98 11.66 15 12 C14.34 13.32 13.68 14.64 13 16 C9.68273845 15.42805835 8.27364177 14.42999536 6 12 C10.49965673 28.63509456 19.34609664 41.47566184 34.4296875 50.19140625 C49.34263833 58.12947121 67.3797299 59.00373591 83.59765625 55.12109375 C90.29317224 52.91487895 96.64197565 49.57409532 102.2421875 45.28125 C104 44 104 44 106 44 C106.24105469 43.43410156 106.48210937 42.86820313 106.73046875 42.28515625 C108.24938526 39.55110653 110.12406163 37.67007495 112.3125 35.4375 C116.94961853 30.39780205 119.57112835 25.35018252 122 19 C122.34933594 18.18789062 122.69867188 17.37578125 123.05859375 16.5390625 C124.08827666 13.76190944 124.63272191 11.1060058 125.125 8.1875 C125.37636719 6.72376953 125.37636719 6.72376953 125.6328125 5.23046875 C125.75398437 4.49441406 125.87515625 3.75835937 126 3 C127.9375 2.4375 127.9375 2.4375 130 2 C131 3 131 3 131.01953125 5.1171875 C129.77422944 21.7055475 121.94256947 35.62612431 110 47 C95.18541688 59.47543842 77.30267852 65.51139541 58 64 C42.75800594 62.22928998 26.24792542 54.86028063 16.25 42.875 C15.5075 41.92625 14.765 40.9775 14 40 C12.7934375 38.948125 12.7934375 38.948125 11.5625 37.875 C5.41915972 30.98247188 2.21951092 21.56011138 -1 13 C-1.5775 13.99 -2.155 14.98 -2.75 16 C-3.4925 16.99 -4.235 17.98 -5 19 C-6.32 19 -7.64 19 -9 19 C-8.45829987 14.47914461 -7.29789011 11.20702308 -5.0625 7.25 C-4.53785156 6.30640625 -4.01320312 5.3628125 -3.47265625 4.390625 C-2 2 -2 2 0 0 Z " fill="#951A30" transform="translate(169,70)"/>
<path d="M0 0 C8.27526097 6.61528425 15.32438949 14.45121796 20 24 C20.40734375 24.78890625 20.8146875 25.5778125 21.234375 26.390625 C22.18222984 28.24738174 23.09562455 30.12168175 24 32 C24.5775 31.01 25.155 30.02 25.75 29 C26.86375 27.515 26.86375 27.515 28 26 C29.32 26 30.64 26 32 26 C31.46520285 32.95236291 27.77812873 38.3328069 24 44 C20.04093183 42.56691865 16.71281819 40.66858051 13.1875 38.375 C12.21167969 37.74335937 11.23585938 37.11171875 10.23046875 36.4609375 C9.49441406 35.97882812 8.75835937 35.49671875 8 35 C8.33 33.35 8.66 31.7 9 30 C12.49487715 30.64719947 14.99709214 32.14247988 18 34 C10.86793236 17.54512721 0.40599544 4.94675648 -16.6875 -1.8125 C-33.80077784 -8.0568218 -50.82622329 -7.58330665 -67.640625 -0.45703125 C-83.82849888 7.76866745 -94.06192474 21.0337554 -99.8125 38.125 C-100.21621886 39.41422375 -100.61525025 40.70498864 -101 42 C-102.32 42 -103.64 42 -105 42 C-106.24842153 31.01389053 -99.1785976 20.56382364 -93 12 C-90.625 9.3125 -90.625 9.3125 -88 7 C-87.40058594 6.39800781 -86.80117187 5.79601562 -86.18359375 5.17578125 C-63.16509736 -17.07967106 -25.85361827 -17.62542324 0 0 Z " fill="#961A30" transform="translate(274,12)"/>
<path d="M0 0 C4.18340804 -0.13816761 8.35884767 -0.25741255 12.54272461 -0.32958984 C13.9638964 -0.35967954 15.38488372 -0.40056404 16.80541992 -0.45263672 C28.4503702 -0.86867347 28.4503702 -0.86867347 32.06176758 1.15576172 C34.25449998 3.54733818 34.97310512 5.83518819 35.48828125 8.9921875 C35.40126953 10.41917969 35.40126953 10.41917969 35.3125 11.875 C35.26738281 12.84179688 35.22226562 13.80859375 35.17578125 14.8046875 C35.08876953 15.89136719 35.08876953 15.89136719 35 17 C34.34 17 33.68 17 33 17 C32.690625 17.61875 32.38125 18.2375 32.0625 18.875 C31.375 20.25 30.6875 21.625 30 23 C20.1 23 10.2 23 0 23 C0 15.41 0 7.82 0 0 Z " fill="#FEFCFD" transform="translate(884,38)"/>
<path d="M0 0 C4.20902296 -0.10807762 8.41526202 -0.1873684 12.625 -0.25 C14.40970703 -0.30027344 14.40970703 -0.30027344 16.23046875 -0.3515625 C27.2834801 -0.47505983 27.2834801 -0.47505983 32 4 C34.48523949 7.72785924 34.52216806 10.68395463 34 15 C32.08661042 20.43805459 32.08661042 20.43805459 28.77270508 22.15185547 C25.64422427 23.10882847 23.09291942 23.22751645 19.82421875 23.1953125 C18.66728516 23.18886719 17.51035156 23.18242188 16.31835938 23.17578125 C14.52108398 23.15064453 14.52108398 23.15064453 12.6875 23.125 C11.46998047 23.11597656 10.25246094 23.10695313 8.99804688 23.09765625 C5.99861353 23.07413128 2.99928156 23.03826156 0 23 C0 15.41 0 7.82 0 0 Z " fill="#FBFAFA" transform="translate(100,38)"/>
<path d="M0 0 C3.320625 -0.061875 6.64125 -0.12375 10.0625 -0.1875 C11.09511963 -0.21481201 12.12773926 -0.24212402 13.19165039 -0.27026367 C19.75968264 -0.329184 24.96933253 0.06849547 29.91015625 4.84765625 C32.01783755 9.01013797 31.61161332 13.47002884 31 18 C28.89431397 21.68495055 26.88181192 23.42640899 23 25 C20.43457031 25.22705078 20.43457031 25.22705078 17.578125 25.1953125 C16.65418945 25.19031738 15.73025391 25.18532227 14.77832031 25.18017578 C13.03180176 25.15286377 13.03180176 25.15286377 11.25 25.125 C7.5375 25.08375 3.825 25.0425 0 25 C0 16.75 0 8.5 0 0 Z " fill="#F9F7F8" transform="translate(25,38)"/>
<path d="M0 0 C0.33 0 0.66 0 1 0 C1.02312241 11.45650016 1.04091457 22.91299481 1.05181217 34.36951351 C1.05704122 39.68865213 1.06413927 45.00777484 1.07543945 50.3269043 C1.08626755 55.45563985 1.09227667 60.58436006 1.09487724 65.71310616 C1.09673163 67.67441614 1.10035251 69.63572524 1.10573006 71.59702873 C1.11293946 74.33415447 1.11399099 77.07121597 1.11352539 79.80834961 C1.11712067 80.62761932 1.12071594 81.44688904 1.12442017 82.29098511 C1.11405216 87.88594784 1.11405216 87.88594784 0 89 C-1.34267413 89.08631874 -2.68974322 89.10706473 -4.03515625 89.09765625 C-4.84404297 89.09443359 -5.65292969 89.09121094 -6.48632812 89.08789062 C-7.33646484 89.07951172 -8.18660156 89.07113281 -9.0625 89.0625 C-9.91650391 89.05798828 -10.77050781 89.05347656 -11.65039062 89.04882812 C-13.76695663 89.03700373 -15.88348685 89.01906769 -18 89 C-18.0463488 78.3949001 -18.08188219 67.78982432 -18.10362434 57.18464375 C-18.11405969 52.26018508 -18.12821443 47.33579573 -18.15087891 42.41137695 C-18.17261604 37.6586813 -18.1845705 32.90605231 -18.18975449 28.15331078 C-18.19344867 26.34043516 -18.20066246 24.52756318 -18.21146011 22.71471596 C-18.22598656 20.17472078 -18.22797746 17.63500077 -18.22705078 15.0949707 C-18.23424133 14.34618652 -18.24143188 13.59740234 -18.24884033 12.82592773 C-18.23284656 8.77220836 -17.80374371 5.64855647 -16 2 C-14.43894977 5.12210046 -14.92065108 8.42386207 -14.97827148 11.84619141 C-14.9926828 13.06094902 -14.9926828 13.06094902 -15.00738525 14.30024719 C-15.04043586 16.98410573 -15.08074504 19.66780456 -15.12109375 22.3515625 C-15.14538895 24.20957878 -15.1692328 26.06760101 -15.19264221 27.92562866 C-15.2555429 32.82147998 -15.32459257 37.71722623 -15.39489746 42.61297607 C-15.46552691 47.60651861 -15.5303761 52.60013578 -15.59570312 57.59375 C-15.72479261 67.39591754 -15.86090818 77.19796928 -16 87 C-10.72 87 -5.44 87 0 87 C0 58.29 0 29.58 0 0 Z " fill="#DB7384" transform="translate(858,23)"/>
<path d="M0 0 C1.53885745 3.07771489 1.07992268 6.29025579 1.02172852 9.66259766 C1.0073172 10.84809456 1.0073172 10.84809456 0.99261475 12.05754089 C0.95956697 14.67647042 0.91925673 17.29523613 0.87890625 19.9140625 C0.85461078 21.72723814 0.83076693 23.54041988 0.80735779 25.35360718 C0.74445985 30.13109274 0.67540941 34.90847054 0.60510254 39.68585205 C0.5344706 44.55874719 0.4696229 49.43171886 0.40429688 54.3046875 C0.27521093 63.86987802 0.13909474 73.43494978 0 83 C5.28 83 10.56 83 16 83 C16 72.11 16 61.22 16 50 C16.33 50 16.66 50 17 50 C17.0246519 54.82380802 17.04283693 59.64757967 17.05493164 64.47143555 C17.05997174 66.11369464 17.06680378 67.75594923 17.07543945 69.39819336 C17.08751926 71.75375479 17.09323139 74.10925709 17.09765625 76.46484375 C17.10281754 77.20339096 17.10797882 77.94193817 17.11329651 78.7028656 C17.1134925 80.46898088 17.06194719 82.23497146 17 84 C16 85 16 85 14.23413086 85.11352539 C13.48526611 85.10828857 12.73640137 85.10305176 11.96484375 85.09765625 C11.15595703 85.09443359 10.34707031 85.09121094 9.51367188 85.08789062 C8.66353516 85.07951172 7.81339844 85.07113281 6.9375 85.0625 C6.08349609 85.05798828 5.22949219 85.05347656 4.34960938 85.04882812 C2.23304337 85.03700373 0.11651315 85.01906769 -2 85 C-2.04629742 74.36035855 -2.081856 63.72074099 -2.10362434 53.0810194 C-2.11407093 48.14080948 -2.1282461 43.20066836 -2.15087891 38.26049805 C-2.17257607 33.49484389 -2.18456203 28.72925602 -2.18975449 23.96355629 C-2.19345587 22.14344552 -2.20068355 20.32333847 -2.21146011 18.50325584 C-2.22593351 15.95806351 -2.22797969 13.41314664 -2.22705078 10.86791992 C-2.23424133 10.11194519 -2.24143188 9.35597046 -2.24884033 8.5770874 C-2.23399918 4.83034813 -2.13382972 3.20074458 0 0 Z " fill="#DA6D7E" transform="translate(868,27)"/>
<path d="M0 0 C0.66 0 1.32 0 2 0 C2.02685095 2.47923801 2.04676547 4.9581884 2.0625 7.4375 C2.07087891 8.14455078 2.07925781 8.85160156 2.08789062 9.58007812 C2.09653588 11.38693559 2.05220011 13.19387603 2 15 C1 16 1 16 -0.82862854 16.12025452 C-1.62582809 16.11803391 -2.42302765 16.11581329 -3.24438477 16.11352539 C-4.14524307 16.11344986 -5.04610138 16.11337433 -5.97425842 16.11329651 C-6.95341721 16.10813522 -7.93257599 16.10297394 -8.94140625 16.09765625 C-9.93881332 16.0962413 -10.9362204 16.09482635 -11.96385193 16.09336853 C-15.16343124 16.08775114 -18.36294169 16.07519571 -21.5625 16.0625 C-23.72591045 16.05748724 -25.88932199 16.05292395 -28.05273438 16.04882812 C-33.36851629 16.03777606 -38.68424646 16.02049979 -44 16 C-44 21.94 -44 27.88 -44 34 C-32.78 34 -21.56 34 -10 34 C-10 37.96 -10 41.92 -10 46 C-11.32 46.66 -12.64 47.32 -14 48 C-13.67 46.68 -13.34 45.36 -13 44 C-12.34 44 -11.68 44 -11 44 C-11 41.03 -11 38.06 -11 35 C-22.22 35 -33.44 35 -45 35 C-45 28.07 -45 21.14 -45 14 C-30.15 14 -15.3 14 0 14 C0 9.38 0 4.76 0 0 Z " fill="#E08392" transform="translate(576,23)"/>
<path d="M0 0 C0.66 0.33 1.32 0.66 2 1 C0.68 2.32 -0.64 3.64 -2 5 C-1.566875 5.53109375 -1.13375 6.0621875 -0.6875 6.609375 C-0.130625 7.31578125 0.42625 8.0221875 1 8.75 C1.556875 9.44609375 2.11375 10.1421875 2.6875 10.859375 C4 13 4 13 4 17 C4.66 17 5.32 17 6 17 C6.33 26.9 6.66 36.8 7 47 C0.73 47 -5.54 47 -12 47 C-12 46.34 -12 45.68 -12 45 C-12.66 45 -13.32 45 -14 45 C-14.33 36.09 -14.66 27.18 -15 18 C-14.34 18.33 -13.68 18.66 -13 19 C-13 24.28 -13 29.56 -13 35 C-12.34 35 -11.68 35 -11 35 C-11 38.63 -11 42.26 -11 46 C-5.72 46 -0.44 46 5 46 C4.66111635 41.87178099 4.31218922 37.74689399 3.93798828 33.62207031 C3.81397639 32.22218542 3.69568509 30.8217804 3.58349609 29.42089844 C2.78734061 19.54293396 1.53357831 11.84029397 -5 4 C-3.35 2.68 -1.7 1.36 0 0 Z " fill="#E08594" transform="translate(931,64)"/>
<path d="M0 0 C0.66 0.33 1.32 0.66 2 1 C1.27087654 1.55588554 1.27087654 1.55588554 0.52702332 2.1230011 C-1.62660791 4.77021899 -1.39801351 6.64413239 -1.43237305 10.03198242 C-1.46206429 11.89357246 -1.46206429 11.89357246 -1.49235535 13.79277039 C-1.49912509 15.14700163 -1.50557196 16.50123453 -1.51171875 17.85546875 C-1.52856405 19.24125261 -1.54671409 20.62702118 -1.56611633 22.01277161 C-1.61363938 25.65741192 -1.64343344 29.30199023 -1.66955566 32.94683838 C-1.69934983 36.66715746 -1.745884 40.38726284 -1.79101562 44.10742188 C-1.87707478 51.40484194 -1.94440803 58.7022775 -2 66 C-1.34 66 -0.68 66 0 66 C0 67.65 0 69.3 0 71 C0.66 71 1.32 71 2 71 C1.67 72.32 1.34 73.64 1 75 C1 74.01 1 73.02 1 72 C0.01 71.67 -0.98 71.34 -2 71 C-5.30938413 64.38123175 -4.17565865 54.71661673 -4.203125 47.484375 C-4.20882507 46.31038147 -4.21452515 45.13638794 -4.22039795 43.92681885 C-4.22979772 41.45935963 -4.2363618 38.99188814 -4.24023438 36.52441406 C-4.25000562 32.74782829 -4.28110309 28.97177239 -4.3125 25.1953125 C-4.31902478 22.79166988 -4.32427731 20.3880234 -4.328125 17.984375 C-4.3404718 16.85723083 -4.3528186 15.73008667 -4.36553955 14.56878662 C-4.36253845 13.5170929 -4.35953735 12.46539917 -4.35644531 11.38183594 C-4.36009094 10.46078064 -4.36373657 9.53972534 -4.36749268 8.59075928 C-3.88090592 5.16040747 -2.46430547 2.46430547 0 0 Z " fill="#DD7888" transform="translate(764,24)"/>
<path d="M0 0 C3.96 1.98 3.96 1.98 8 4 C8 7.96 8 11.92 8 16 C1.72579638 13.49031855 1.72579638 13.49031855 0 11 C-0.29296875 8.30078125 -0.29296875 8.30078125 -0.1875 5.3125 C-0.16042969 4.31863281 -0.13335937 3.32476562 -0.10546875 2.30078125 C-0.07066406 1.54152344 -0.03585938 0.78226563 0 0 Z " fill="#C61E3A" transform="translate(248,54)"/>
<path d="M0 0 C0.66 0.33 1.32 0.66 2 1 C1.34 2.32 0.68 3.64 0 5 C-0.66 5 -1.32 5 -2 5 C-2 32.06 -2 59.12 -2 87 C-2.33 87 -2.66 87 -3 87 C-3.06940502 75.95195823 -3.12276284 64.90396803 -3.15543652 53.85575294 C-3.17111552 48.72602279 -3.19239443 43.5964414 -3.22631836 38.46679688 C-3.25883229 33.51959133 -3.27683616 28.57252918 -3.28463173 23.62522507 C-3.2901896 21.73449825 -3.30104227 19.84377958 -3.31719017 17.95311356 C-3.33885879 15.31182939 -3.3419714 12.6711434 -3.34057617 10.02978516 C-3.351362 9.24216293 -3.36214783 8.45454071 -3.3732605 7.64305115 C-3.36076355 5.46743774 -3.36076355 5.46743774 -3 2 C-2.01 1.34 -1.02 0.68 0 0 Z " fill="#E8A3AE" transform="translate(516,24)"/>
<path d="M0 0 C4.21861875 -0.09187554 8.43376537 -0.17148388 12.65258789 -0.21972656 C14.08727786 -0.23983525 15.52188593 -0.26712673 16.95629883 -0.30175781 C19.01924839 -0.3503146 21.08111431 -0.37297406 23.14453125 -0.390625 C24.38565674 -0.41157227 25.62678223 -0.43251953 26.90551758 -0.45410156 C30 0 30 0 31.9284668 2.02441406 C32.45887573 3.0023291 32.45887573 3.0023291 33 4 C30.525 3.505 30.525 3.505 28 3 C28 2.34 28 1.68 28 1 C19.09 1 10.18 1 1 1 C1 7.93 1 14.86 1 22 C10.57 22 20.14 22 30 22 C30 22.33 30 22.66 30 23 C20.1 23 10.2 23 0 23 C0 15.41 0 7.82 0 0 Z " fill="#EBAFB9" transform="translate(884,38)"/>
<path d="M0 0 C0.99 0.495 0.99 0.495 2 1 C2 1.66 2 2.32 2 3 C2.66 3 3.32 3 4 3 C4.13277344 3.63808594 4.26554688 4.27617188 4.40234375 4.93359375 C4.57894531 5.75988281 4.75554688 6.58617187 4.9375 7.4375 C5.11152344 8.26121094 5.28554688 9.08492187 5.46484375 9.93359375 C5.80752994 11.97661204 5.80752994 11.97661204 7 13 C7.25423019 17.26465802 7.18523163 21.54116727 7.1875 25.8125 C7.19974609 27.01455078 7.21199219 28.21660156 7.22460938 29.45507812 C7.22750977 31.18854492 7.22750977 31.18854492 7.23046875 32.95703125 C7.23457764 34.01897705 7.23868652 35.08092285 7.24291992 36.17504883 C7 39 7 39 5 43 C5.33 36.4 5.66 29.8 6 23 C5.34 23 4.68 23 4 23 C3.87882813 21.84242187 3.75765625 20.68484375 3.6328125 19.4921875 C3.46388684 17.95308708 3.29459668 16.41402663 3.125 14.875 C3.04636719 14.11445312 2.96773437 13.35390625 2.88671875 12.5703125 C2.39026335 8.14040279 1.59599921 4.19788029 0 0 Z " fill="#E28E9C" transform="translate(746,40)"/>
<path d="M0 0 C5.28 0.66 10.56 1.32 16 2 C16 2.66 16 3.32 16 4 C23.80148045 3.46465627 23.80148045 3.46465627 31.4375 1.875 C34.84263351 1.03865142 35.84442765 1.01518401 39 2 C34.39675069 6.60324931 26.8349813 5.26010349 20.75 5.3125 C19.64269531 5.34150391 18.53539062 5.37050781 17.39453125 5.40039062 C10.42330904 5.45427046 5.95430438 4.68150283 0 1 C0 0.67 0 0.34 0 0 Z " fill="#DA6C7E" transform="translate(775,108)"/>
<path d="M0 0 C0.99 0.495 0.99 0.495 2 1 C2 6.28 2 11.56 2 17 C2.66 17 3.32 17 4 17 C4 20.63 4 24.26 4 28 C9.28 28 14.56 28 20 28 C20.33 27.34 20.66 26.68 21 26 C21.33 26.99 21.66 27.98 22 29 C15.73 29 9.46 29 3 29 C3 28.34 3 27.68 3 27 C2.34 27 1.68 27 1 27 C0.67 18.09 0.34 9.18 0 0 Z " fill="#D76074" transform="translate(916,82)"/>
<path d="M0 0 C11.55 0 23.1 0 35 0 C35 3.96 35 7.92 35 12 C33.02 12.99 33.02 12.99 31 14 C31.33 12.68 31.66 11.36 32 10 C32.66 10 33.32 10 34 10 C34 7.03 34 4.06 34 1 C22.78 1 11.56 1 0 1 C0 0.67 0 0.34 0 0 Z " fill="#E08796" transform="translate(531,57)"/>
<path d="M0 0 C2.475 0.495 2.475 0.495 5 1 C5 1.66 5 2.32 5 3 C6.27875 2.979375 7.5575 2.95875 8.875 2.9375 C12.75 2.875 12.75 2.875 15 4 C16.44848582 4.08342159 17.90070869 4.10732861 19.3515625 4.09765625 C20.62773438 4.09282227 20.62773438 4.09282227 21.9296875 4.08789062 C23.26386719 4.07532227 23.26386719 4.07532227 24.625 4.0625 C25.97078125 4.05573242 25.97078125 4.05573242 27.34375 4.04882812 C29.56256648 4.03702591 31.78125018 4.02056155 34 4 C34 4.66 34 5.32 34 6 C30.12506384 6.05834395 26.25024164 6.09371201 22.375 6.125 C21.28058594 6.14175781 20.18617188 6.15851563 19.05859375 6.17578125 C9.01920021 6.23662606 9.01920021 6.23662606 4 4 C4 3.34 4 2.68 4 2 C2.68 1.67 1.36 1.34 0 1 C0 0.67 0 0.34 0 0 Z " fill="#F0C5CC" transform="translate(689,108)"/>
<path d="M0 0 C1.01085428 3.34386398 1.11543463 6.3748118 1.09765625 9.859375 C1.09443359 10.97441406 1.09121094 12.08945313 1.08789062 13.23828125 C1.07951172 14.39714844 1.07113281 15.55601563 1.0625 16.75 C1.05798828 17.92433594 1.05347656 19.09867188 1.04882812 20.30859375 C1.03705094 23.20578072 1.02060326 26.10286454 1 29 C1.66 29 2.32 29 3 29 C3.33 31.64 3.66 34.28 4 37 C2 36 2 36 0.9375 33.9375 C-1.26575134 27.03397913 -1.15677887 19.86422874 -1.125 12.6875 C-1.13080078 11.34848633 -1.13080078 11.34848633 -1.13671875 9.98242188 C-1.13542969 9.12583984 -1.13414062 8.26925781 -1.1328125 7.38671875 C-1.13168457 6.61545654 -1.13055664 5.84419434 -1.12939453 5.04956055 C-1 3 -1 3 0 0 Z " fill="#D65D71" transform="translate(669,54)"/>
<path d="M0 0 C2.62994337 1.31497169 2.92315481 2.27199218 4 5 C5.3675109 11.9743056 6.21286279 18.57427442 3 25 C3 19.06 3 13.12 3 7 C2.34 7 1.68 7 1 7 C0.67 4.69 0.34 2.38 0 0 Z " fill="#DB7283" transform="translate(933,32)"/>
<path d="M0 0 C1.32 0 2.64 0 4 0 C4 0.66 4 1.32 4 2 C4.99 2 5.98 2 7 2 C7 2.66 7 3.32 7 4 C11.29 4 15.58 4 20 4 C20 3.34 20 2.68 20 2 C21.32 1.67 22.64 1.34 24 1 C24 2.32 24 3.64 24 5 C21.12397545 5.10852923 18.25209168 5.1875515 15.375 5.25 C14.16263672 5.30027344 14.16263672 5.30027344 12.92578125 5.3515625 C7.30332015 5.44298463 4.32127226 4.66399136 0 1 C0 0.67 0 0.34 0 0 Z " fill="#E597A4" transform="translate(696,93)"/>
<path d="M0 0 C-8.44237574 2.89452883 -16.11487651 3.35021655 -25 3 C-25 2.67 -25 2.34 -25 2 C-21.37 2 -17.74 2 -14 2 C-14 1.34 -14 0.68 -14 0 C-12.41773035 -0.19627391 -10.83410729 -0.38165538 -9.25 -0.5625 C-8.36828125 -0.66691406 -7.4865625 -0.77132812 -6.578125 -0.87890625 C-4.11567549 -0.99456676 -2.33461936 -0.73638695 0 0 Z " fill="#D45469" transform="translate(729,110)"/>
<path d="M0 0 C0.99 0.495 0.99 0.495 2 1 C2 1.66 2 2.32 2 3 C2.66 3 3.32 3 4 3 C5.10789535 7.05308333 5.33731267 11.07111374 5.5625 15.25 C5.60568359 15.99507812 5.64886719 16.74015625 5.69335938 17.5078125 C5.79896725 19.338349 5.89994201 21.16915176 6 23 C5.34 23 4.68 23 4 23 C3.87882813 21.84242187 3.75765625 20.68484375 3.6328125 19.4921875 C3.46388684 17.95308708 3.29459668 16.41402663 3.125 14.875 C3.04636719 14.11445312 2.96773437 13.35390625 2.88671875 12.5703125 C2.39026335 8.14040279 1.59599921 4.19788029 0 0 Z " fill="#D9697C" transform="translate(746,40)"/>
<path d="M0 0 C0.66 0 1.32 0 2 0 C2 0.99 2 1.98 2 3 C2.66 3 3.32 3 4 3 C4 3.66 4 4.32 4 5 C4.66 5 5.32 5 6 5 C6.33 7.31 6.66 9.62 7 12 C7.66 12 8.32 12 9 12 C9.33 13.98 9.66 15.96 10 18 C9.34 17.67 8.68 17.34 8 17 C8 16.01 8 15.02 8 14 C7.34 14 6.68 14 6 14 C5.731875 12.88625 5.46375 11.7725 5.1875 10.625 C4.34190981 6.78159049 4.34190981 6.78159049 1 5 C0.3125 2.375 0.3125 2.375 0 0 Z " fill="#DD7A8A" transform="translate(961,47)"/>
<path d="M0 0 C3.08301416 -0.11644156 6.16546123 -0.18732432 9.25 -0.25 C10.12269531 -0.28351562 10.99539063 -0.31703125 11.89453125 -0.3515625 C18.41598332 -0.45112665 18.41598332 -0.45112665 21.609375 2.015625 C22.06828125 2.67046875 22.5271875 3.3253125 23 4 C20.36 3.67 17.72 3.34 15 3 C15 2.34 15 1.68 15 1 C10.05 1.33 5.1 1.66 0 2 C0 1.34 0 0.68 0 0 Z " fill="#E08493" transform="translate(701,36)"/>
<path d="M0 0 C6.93 0 13.86 0 21 0 C21 0.99 21 1.98 21 3 C20.34 3 19.68 3 19 3 C19 2.34 19 1.68 19 1 C16.43663746 1.11446272 13.87486555 1.24119501 11.3125 1.375 C10.2306543 1.42140625 10.2306543 1.42140625 9.12695312 1.46875 C5.02789606 1.69335587 1.75631541 2.17740909 -2 4 C-2 3.34 -2 2.68 -2 2 C-1.34 2 -0.68 2 0 2 C0 1.34 0 0.68 0 0 Z " fill="#ECB4BD" transform="translate(1006,22)"/>
<path d="M0 0 C0.66 0 1.32 0 2 0 C2 4.62 2 9.24 2 14 C1.34 14 0.68 14 0 14 C0 14.99 0 15.98 0 17 C-1.32 16.67 -2.64 16.34 -4 16 C-2.625 14 -2.625 14 -1 12 C-0.34 12 0.32 12 1 12 C0.67 8.04 0.34 4.08 0 0 Z " fill="#D55A6E" transform="translate(918,43)"/>
<path d="M0 0 C3.96 0 7.92 0 12 0 C11.67 0.66 11.34 1.32 11 2 C10.34 2 9.68 2 9 2 C9 2.66 9 3.32 9 4 C6.75 4.25 6.75 4.25 4 4 C2.68 2.68 1.36 1.36 0 0 Z " fill="#E18896" transform="translate(737,111)"/>
<path d="M0 0 C1.24546405 2.49092811 0.7767578 3.41080733 0 6 C-0.66 6 -1.32 6 -2 6 C-2.1546875 6.8971875 -2.1546875 6.8971875 -2.3125 7.8125 C-3.08876455 10.28243264 -4.07088921 11.32251235 -6 13 C-5.67 11.02 -5.34 9.04 -5 7 C-4.34 7 -3.68 7 -3 7 C-3 6.01 -3 5.02 -3 4 C-2.34 4 -1.68 4 -1 4 C-0.67 2.68 -0.34 1.36 0 0 Z " fill="#DC7687" transform="translate(1008,55)"/>
<path d="M0 0 C0.69480469 0.16371094 1.38960937 0.32742187 2.10546875 0.49609375 C5.2352816 1.04095996 8.13798083 1.09738483 11.3125 1.0625 C12.38113281 1.05347656 13.44976563 1.04445313 14.55078125 1.03515625 C15.76314453 1.01775391 15.76314453 1.01775391 17 1 C16.67 1.66 16.34 2.32 16 3 C11.38 3 6.76 3 2 3 C2 2.34 2 1.68 2 1 C1.34 0.67 0.68 0.34 0 0 Z " fill="#DD7788" transform="translate(786,95)"/>
<path d="M0 0 C0.33 0 0.66 0 1 0 C1 1.98 1 3.96 1 6 C1.66 6 2.32 6 3 6 C3.33 8.64 3.66 11.28 4 14 C2 13 2 13 0.875 10.9375 C-0.2583306 7.13274727 -0.13434296 3.9631172 0 0 Z " fill="#E18997" transform="translate(669,77)"/>
<path d="M0 0 C0.66 0 1.32 0 2 0 C2 0.99 2 1.98 2 3 C2.66 3 3.32 3 4 3 C4 3.99 4 4.98 4 6 C4.66 6 5.32 6 6 6 C6.33 7.65 6.66 9.3 7 11 C5 9.75 5 9.75 3 8 C3 6.68 3 5.36 3 4 C2.34 4 1.68 4 1 4 C0.67 2.68 0.34 1.36 0 0 Z " fill="#DB7082" transform="translate(954,35)"/>
<path d="M0 0 C0.33 0 0.66 0 1 0 C1 3.63 1 7.26 1 11 C-0.98 11.99 -0.98 11.99 -3 13 C-2.67 11.68 -2.34 10.36 -2 9 C-1.34 9 -0.68 9 0 9 C0 6.03 0 3.06 0 0 Z " fill="#DC7585" transform="translate(565,58)"/>
<path d="M0 0 C1.28485596 5.13942384 0.22194431 6.37835584 -2 11 C-2.66 10.67 -3.32 10.34 -4 10 C-2.68 6.7 -1.36 3.4 0 0 Z " fill="#D35267" transform="translate(1000,33)"/>
</svg>
