<?xml version="1.0" encoding="UTF-8"?>
<svg version="1.1" xmlns="http://www.w3.org/2000/svg" width="389" height="109">
<path d="M0 0 C8.74547872 6.23781457 15.27765331 14.61555361 17.3125 25.3125 C18.34323779 39.21273531 16.55721171 50.22250294 7.328125 61.27734375 C-1.05610189 69.74281315 -10.94836473 74.07259854 -22.8125 74.5625 C-34.39589029 74.3487126 -44.2112619 70.21334454 -52.75390625 62.4296875 C-61.85147439 52.72299492 -64.18672495 42.54316496 -63.96484375 29.65625 C-63.4788998 18.49646256 -57.88808561 10.12594031 -50 2.625 C-35.36712498 -9.69593715 -15.88730177 -9.71642476 0 0 Z " fill="#C61C38" transform="translate(208.6875,20.6875)"/>
<path d="M0 0 C0.75410156 0.00451172 1.50820313 0.00902344 2.28515625 0.01367188 C4.14847127 0.02546501 6.01174555 0.04340058 7.875 0.0625 C10.23294282 5.23679129 11.91134837 10.34624742 13.35546875 15.83984375 C13.57318436 16.65119278 13.79089996 17.46254181 14.01521301 18.29847717 C14.70254549 20.86437098 15.38263223 23.43211942 16.0625 26 C16.53011953 27.75077916 16.99821384 29.50143159 17.46679688 31.25195312 C18.60835867 35.52068986 19.74343081 39.79110404 20.875 44.0625 C21.535 44.0625 22.195 44.0625 22.875 44.0625 C26.24328398 32.55695824 29.4911353 21.049163 32.2253418 9.37402344 C32.41394775 8.58801758 32.60255371 7.80201172 32.796875 6.9921875 C32.95768555 6.30366699 33.11849609 5.61514648 33.28417969 4.90576172 C33.875 3.0625 33.875 3.0625 35.875 0.0625 C37.99804688 -0.30981445 37.99804688 -0.30981445 40.59375 -0.30078125 C41.52574219 -0.30013672 42.45773437 -0.29949219 43.41796875 -0.29882812 C44.39378906 -0.28271484 45.36960937 -0.26660156 46.375 -0.25 C47.35082031 -0.25322266 48.32664062 -0.25644531 49.33203125 -0.25976562 C56.60808471 -0.20441529 56.60808471 -0.20441529 58.875 2.0625 C59.13569641 4.82640076 59.13569641 4.82640076 59.1496582 8.39233398 C59.15476913 9.04129639 59.15988007 9.69025879 59.16514587 10.35888672 C59.17907115 12.5088823 59.17808292 14.65855837 59.17578125 16.80859375 C59.17966672 18.30070618 59.18400107 19.79281749 59.18876648 21.28492737 C59.19623508 24.41467878 59.19593293 27.5443174 59.19067383 30.67407227 C59.18487967 34.68708899 59.20180535 38.69964411 59.2250185 42.7125845 C59.23974302 45.79493413 59.24062929 48.87717229 59.23750877 51.95955086 C59.23802268 53.43914771 59.24327346 54.91875069 59.25332069 56.39831352 C59.26564297 58.46693874 59.25891985 60.53466097 59.24731445 62.60327148 C59.24794388 63.78082504 59.2485733 64.9583786 59.2492218 66.1716156 C58.875 69.0625 58.875 69.0625 57.50016785 70.94129944 C55.24155371 72.49951353 53.59728111 72.46180608 50.875 72.4375 C49.575625 72.44910156 49.575625 72.44910156 48.25 72.4609375 C45.875 72.0625 45.875 72.0625 44.24487305 71.02075195 C42.13329177 68.0022181 42.50661498 64.87895059 42.58203125 61.33203125 C42.58627609 60.58161057 42.59052094 59.83118988 42.59489441 59.05802917 C42.6116755 56.66331974 42.6493251 54.26945466 42.6875 51.875 C42.70254765 50.2506632 42.71623591 48.6263132 42.72851562 47.00195312 C42.76157695 43.02181052 42.81335406 39.04229837 42.875 35.0625 C41.555 35.0625 40.235 35.0625 38.875 35.0625 C38.73191406 36.61324219 38.73191406 36.61324219 38.5859375 38.1953125 C37.78591343 44.56462691 36.09791461 50.73072425 34.5 56.9375 C34.19578125 58.17242187 33.8915625 59.40734375 33.578125 60.6796875 C33.27648437 61.8553125 32.97484375 63.0309375 32.6640625 64.2421875 C32.25728271 65.84682861 32.25728271 65.84682861 31.84228516 67.48388672 C30.875 70.0625 30.875 70.0625 27.875 72.0625 C25.0625 72.328125 25.0625 72.328125 21.875 72.3125 C20.823125 72.31765625 19.77125 72.3228125 18.6875 72.328125 C15.875 72.0625 15.875 72.0625 12.875 70.0625 C12.05226198 67.67687742 11.40552735 65.41837444 10.83203125 62.97265625 C10.65870773 62.27232773 10.48538422 61.57199921 10.30680847 60.85044861 C9.94261574 59.36982003 9.58405271 57.887797 9.23071289 56.40454102 C8.68975633 54.13446849 8.13263523 51.86886572 7.57226562 49.60351562 C7.2204031 48.16429468 6.86946067 46.72484842 6.51953125 45.28515625 C6.35395218 44.60695328 6.18837311 43.92875031 6.01777649 43.22999573 C5.35223686 40.42608853 4.875 37.95685288 4.875 35.0625 C3.555 35.0625 2.235 35.0625 0.875 35.0625 C0.89856567 36.63717041 0.89856567 36.63717041 0.92260742 38.24365234 C0.97682619 42.13110712 1.0113204 46.01852837 1.03979492 49.90625 C1.05490003 51.5902264 1.07538546 53.27416335 1.10131836 54.95800781 C1.13762721 57.37574993 1.15470847 59.79297292 1.16796875 62.2109375 C1.19119453 63.34382706 1.19119453 63.34382706 1.21488953 64.49960327 C1.21557617 66.62255859 1.21557617 66.62255859 0.875 70.0625 C-2.39627586 72.24335057 -3.39876723 72.31137859 -7.1875 72.25 C-8.06535156 72.24355469 -8.94320313 72.23710938 -9.84765625 72.23046875 C-12.125 72.0625 -12.125 72.0625 -14.125 71.0625 C-14.21776481 62.67396315 -14.28879728 54.28564135 -14.33224869 45.89671803 C-14.35310547 42.0011919 -14.3813873 38.10601723 -14.42675781 34.21069336 C-14.47028508 30.44999942 -14.49415148 26.6896431 -14.50450897 22.92871666 C-14.51188812 21.49538548 -14.5262982 20.06207235 -14.54792023 18.62888527 C-14.57703957 16.61841546 -14.57863462 14.60760445 -14.57910156 12.59692383 C-14.59242523 10.88150139 -14.59242523 10.88150139 -14.60601807 9.13142395 C-14.01992397 5.39210865 -12.73843553 3.74758418 -10.125 1.0625 C-6.93675432 -0.53162284 -3.49603338 -0.03924735 0 0 Z " fill="#900921" transform="translate(265.125,18.9375)"/>
<path d="M0 0 C0.77793411 -0.00938095 1.55586823 -0.0187619 2.3573761 -0.02842712 C3.18972275 -0.01719315 4.0220694 -0.00595917 4.87963867 0.00561523 C6.17800911 0.00343239 6.17800911 0.00343239 7.50260925 0.00120544 C9.33250291 0.00286366 11.16241063 0.01441631 12.9921875 0.03515625 C15.77754809 0.06400125 18.56099115 0.05578562 21.34643555 0.04272461 C23.12834576 0.04896596 24.91024999 0.05735999 26.69213867 0.06811523 C27.51841263 0.0651796 28.34468658 0.06224396 29.19599915 0.05921936 C35.78590134 0.16537692 40.42051552 1.51997888 45.73510742 5.62670898 C50.02209807 11.10453037 51.30770722 16.3325621 50.86010742 23.25170898 C50.02822545 29.66525061 47.68307063 33.12774324 42.98510742 37.50170898 C43.78948242 38.38858398 44.59385742 39.27545898 45.42260742 40.18920898 C50.10424541 45.35101498 49.26392573 52.49554629 49.50268555 59.08764648 C49.72851532 63.85989825 50.50363871 67.9553394 51.98510742 72.50170898 C49.19286669 72.58242686 46.40294176 72.64206307 43.61010742 72.68920898 C42.81604492 72.7143457 42.02198242 72.73948242 41.20385742 72.76538086 C39.12924595 72.79175304 37.05409877 72.65657361 34.98510742 72.50170898 C32.83742661 69.28018777 32.64334636 67.94036953 32.35229492 64.17749023 C32.26850586 63.14946289 32.1847168 62.12143555 32.09838867 61.06225586 C32.01975586 59.99040039 31.94112305 58.91854492 31.86010742 57.81420898 C31.77374023 56.73075195 31.68737305 55.64729492 31.59838867 54.53100586 C31.38620085 51.85508163 31.18209585 49.178788 30.98510742 46.50170898 C27.82463408 45.81908561 24.78770076 45.34788275 21.55932617 45.18530273 C20.84091553 45.14719482 20.12250488 45.10908691 19.38232422 45.06982422 C18.48811768 45.02672119 17.59391113 44.98361816 16.67260742 44.93920898 C13.80573242 44.79483398 10.93885742 44.65045898 7.98510742 44.50170898 C7.98510742 53.74170898 7.98510742 62.98170898 7.98510742 72.50170898 C2.70510742 72.50170898 -2.57489258 72.50170898 -8.01489258 72.50170898 C-8.10526795 63.70470977 -8.17865088 54.90801897 -8.22214127 46.11066055 C-8.24301469 42.02566529 -8.27132721 37.94100414 -8.31665039 33.85620117 C-8.36011788 29.91396553 -8.38403153 25.97205121 -8.39440155 22.02959442 C-8.40179139 20.52566214 -8.41622225 19.02174742 -8.43781281 17.51795197 C-8.4668607 15.41091439 -8.47084829 13.3052037 -8.46899414 11.19799805 C-8.47787659 9.9988678 -8.48675903 8.79973755 -8.49591064 7.56427002 C-8.01489258 4.50170898 -8.01489258 4.50170898 -6.23744202 2.11454773 C-3.86355018 0.39188426 -2.87966423 0.00070307 0 0 Z M7.98510742 13.50170898 C7.98510742 19.11170898 7.98510742 24.72170898 7.98510742 30.50170898 C11.56924395 30.60959269 15.1501389 30.68897204 18.73510742 30.75170898 C19.75088867 30.78522461 20.76666992 30.81874023 21.81323242 30.85327148 C27.55099603 31.02305993 27.55099603 31.02305993 32.66088867 28.77124023 C34.13209179 26.24979772 34.4962609 24.84115592 34.42260742 21.93920898 C34.42131836 21.17479492 34.4200293 20.41038086 34.41870117 19.62280273 C33.88267729 17.00063187 33.08230385 16.12518575 30.98510742 14.50170898 C28.10245593 13.54082515 26.30848471 13.38499957 23.31713867 13.40405273 C22.42446289 13.40727539 21.53178711 13.41049805 20.61206055 13.41381836 C19.68329102 13.42219727 18.75452148 13.43057617 17.79760742 13.43920898 C16.38705078 13.44597656 16.38705078 13.44597656 14.94799805 13.45288086 C12.62700734 13.46466254 10.30604935 13.48259784 7.98510742 13.50170898 Z " fill="#900921" transform="translate(69.014892578125,18.498291015625)"/>
<path d="M0 0 C4.8533222 4.44807462 8.62547012 8.97380378 9.25 15.6875 C9 18 9 18 7 20 C2.57356466 20.74788495 -0.97818157 20.63579813 -4.8125 18.25 C-5.534375 17.5075 -6.25625 16.765 -7 16 C-7.721875 15.278125 -8.44375 14.55625 -9.1875 13.8125 C-9.785625 13.214375 -10.38375 12.61625 -11 12 C-13.68567297 10.65716351 -15.87746853 10.75712481 -18.875 10.6875 C-19.92429687 10.65011719 -20.97359375 10.61273438 -22.0546875 10.57421875 C-25.67971985 11.09826189 -26.78645145 12.14431354 -29 15 C-29.83333333 17.5 -29.83333333 17.5 -29 20 C-22.9787983 25.08934906 -15.41383866 26.31924452 -7.94140625 28.26757812 C-0.63761557 30.26492264 6.20123229 32.41407887 11 38.5625 C12.88840014 45.0538755 13.23992365 52.09370561 10.4375 58.375 C7.45019059 63.44181455 3.36473076 66.96543029 -2 69.3125 C-13.21233027 71.88199235 -26.11233542 72.73106914 -36.375 66.6875 C-41.13274972 63.41654707 -44.39572283 59.6149701 -46 54 C-46.07646165 51.6679198 -46.09143299 49.33154122 -46 47 C-41.74098785 44.87049392 -36.58573688 45.1221414 -32 46 C-30.04868869 47.89939172 -29.13361888 49.56433611 -28.0625 52.0546875 C-26.68298169 54.58042323 -25.7191604 55.09050381 -23 56 C-19.89317679 56.35411935 -19.89317679 56.35411935 -16.5625 56.3125 C-15.45003906 56.32925781 -14.33757812 56.34601563 -13.19140625 56.36328125 C-9.64049658 55.95907733 -7.75169491 55.27269617 -5 53 C-4.39975479 50.95714939 -4.39975479 50.95714939 -4.6875 48.8125 C-4.8421875 46.9253125 -4.8421875 46.9253125 -5 45 C-9.53923535 43.5901669 -14.07265344 42.22987192 -18.6875 41.0859375 C-28.69624225 38.60393085 -38.19575718 36.14607959 -44 27 C-46.45667641 20.75201048 -46.27589799 15.27057311 -44 9 C-40.88944847 2.77889694 -36.20921367 -0.52385215 -29.75 -2.7890625 C-20.77474917 -5.00335136 -8.01610082 -5.25440166 0 0 Z " fill="#900921" transform="translate(377,21)"/>
<path d="M0 0 C0.76968109 -0.00619858 1.53936218 -0.01239716 2.33236694 -0.01878357 C3.96131123 -0.02587865 5.59032808 -0.02271301 7.21923828 -0.01000977 C9.68271888 0.00374865 12.14231531 -0.03008097 14.60546875 -0.06835938 C23.31115749 -0.11096065 30.83316943 0.08865251 38.0859375 5.56640625 C43.00101295 11.09586614 44.56681619 18.10590646 44.3359375 25.421875 C43.51137496 32.4950755 41.77080295 37.99078284 36.0859375 42.56640625 C35.5084375 43.12328125 34.9309375 43.68015625 34.3359375 44.25390625 C27.93757488 47.98628444 20.22007263 47.83540267 13.0234375 47.69140625 C10.0740625 47.65015625 7.1246875 47.60890625 4.0859375 47.56640625 C4.0859375 55.81640625 4.0859375 64.06640625 4.0859375 72.56640625 C-1.1940625 72.56640625 -6.4740625 72.56640625 -11.9140625 72.56640625 C-12.00443787 63.76940704 -12.0778208 54.97271623 -12.12131119 46.17535782 C-12.14218461 42.09036255 -12.17049713 38.0057014 -12.21582031 33.92089844 C-12.2592878 29.9786628 -12.28320145 26.03674848 -12.29357147 22.09429169 C-12.30096132 20.59035941 -12.31539217 19.08644468 -12.33698273 17.58264923 C-12.36603062 15.47561166 -12.37001821 13.36990096 -12.36816406 11.26269531 C-12.37704651 10.06356506 -12.38592896 8.86443481 -12.39508057 7.62896729 C-11.267686 0.45103593 -6.32568879 -0.04266096 0 0 Z M4.0859375 13.56640625 C4.0859375 19.83640625 4.0859375 26.10640625 4.0859375 32.56640625 C8.6646875 32.69015625 8.6646875 32.69015625 13.3359375 32.81640625 C14.29145508 32.85282227 15.24697266 32.88923828 16.23144531 32.92675781 C21.25938274 33.02396908 21.25938274 33.02396908 25.640625 30.765625 C27.67005321 27.67760316 27.95714132 25.23709743 28.0859375 21.56640625 C27.34903088 18.3240171 26.64564202 17.01438472 24.05078125 14.9375 C20.02769166 13.07701983 16.63774334 13.23734088 12.2734375 13.37890625 C9.5715625 13.44078125 6.8696875 13.50265625 4.0859375 13.56640625 Z " fill="#900922" transform="translate(11.9140625,18.43359375)"/>
<path d="M0 0 C0.63292969 0.36609375 1.26585937 0.7321875 1.91796875 1.109375 C6.65322542 4.06514031 7.50681772 6.36336522 8.875 11.875 C10.74374321 13.20781729 10.74374321 13.20781729 12.9375 13.875 C15.109375 15.01953125 15.109375 15.01953125 16.875 16.875 C17.47373659 20.21551207 17.70365632 23.24113276 17.66235352 26.61914062 C17.64637051 28.37245422 17.75287154 30.12587203 17.875 31.875 C18.865 32.535 19.855 33.195 20.875 33.875 C21.16796875 36.9140625 21.16796875 36.9140625 21.0625 40.5 C21.02189453 42.28277344 21.02189453 42.28277344 20.98046875 44.1015625 C20.94566406 45.01679687 20.91085938 45.93203125 20.875 46.875 C19.555 46.875 18.235 46.875 16.875 46.875 C16.895625 45.84375 16.91625 44.8125 16.9375 43.75 C16.57235857 40.85831547 16.04534878 40.0231713 13.8046875 38.07421875 C11.54710859 36.5915768 9.21393665 35.22565356 6.875 33.875 C6.875 38.165 6.875 42.455 6.875 46.875 C5.555 46.875 4.235 46.875 2.875 46.875 C2.875 33.675 2.875 20.475 2.875 6.875 C1.225 6.215 -0.425 5.555 -2.125 4.875 C-4.765 3.225 -7.405 1.575 -10.125 -0.125 C-10.125 15.385 -10.125 30.895 -10.125 46.875 C-12.105 46.875 -14.085 46.875 -16.125 46.875 C-16.125 37.635 -16.125 28.395 -16.125 18.875 C-20.58 20.36 -20.58 20.36 -25.125 21.875 C-25.125 30.125 -25.125 38.375 -25.125 46.875 C-26.775 46.875 -28.425 46.875 -30.125 46.875 C-30.125 37.305 -30.125 27.735 -30.125 17.875 C-26.825 16.555 -23.525 15.235 -20.125 13.875 C-20.145625 12.83859375 -20.16625 11.8021875 -20.1875 10.734375 C-20.12832848 0.00460552 -20.12832848 0.00460552 -17.41796875 -3.046875 C-10.44814501 -6.61583855 -6.26051271 -3.89829864 0 0 Z " fill="#FCF4F5" transform="translate(190.125,28.125)"/>
<path d="M0 0 C4.38894929 3.26720791 8.75259665 6.54898478 13 10 C12.67 11.32 12.34 12.64 12 14 C9.525 13.505 9.525 13.505 7 13 C10.3071088 25.60835231 17.80770552 34.44515025 29 41 C41.95457436 47.42124143 55.04021484 49.0044776 69.0859375 45.0390625 C82.21419321 40.35794183 91.6136624 32.36745073 98 20 C100.23709219 14.44794392 101.9087635 8.88411838 103 3 C104.32 2.67 105.64 2.34 107 2 C108.53393443 4.40561673 109.02701832 5.67823637 108.78515625 8.55859375 C104.61652025 25.16553826 96.35383783 36.91432605 82 46 C68.13020916 53.4625505 52.30188908 55.77314776 37 51.375 C34.97994079 50.63601631 32.97775209 49.84571436 31 49 C30.05898437 48.59910156 29.11796875 48.19820312 28.1484375 47.78515625 C14.37813982 41.09395527 5.47563578 28.99329144 0 15 C-1.32 15.99 -2.64 16.98 -4 18 C-5.32 17.34 -6.64 16.68 -8 16 C-6.57250019 12.20950293 -4.83763458 8.72877544 -2.875 5.1875 C-2.33617187 4.21167969 -1.79734375 3.23585937 -1.2421875 2.23046875 C-0.83226562 1.49441406 -0.42234375 0.75835937 0 0 Z " fill="#910921" transform="translate(132,56)"/>
<path d="M0 0 C7.70971754 6.03898868 13.05242539 14.85551883 17.04296875 23.66796875 C18.03296875 22.01796875 19.02296875 20.36796875 20.04296875 18.66796875 C22.02296875 19.16296875 22.02296875 19.16296875 24.04296875 19.66796875 C23.7112768 25.97011572 20.36972887 30.52013811 17.04296875 35.66796875 C15.27118822 34.71138775 13.50057799 33.75263887 11.73046875 32.79296875 C10.74433594 32.25929687 9.75820312 31.725625 8.7421875 31.17578125 C6.04296875 29.66796875 6.04296875 29.66796875 3.04296875 27.66796875 C3.37296875 26.01796875 3.70296875 24.36796875 4.04296875 22.66796875 C5.69296875 22.99796875 7.34296875 23.32796875 9.04296875 23.66796875 C7.63343404 15.30864487 0.09176989 7.91781854 -6.54296875 3.1640625 C-19.34082409 -4.76729445 -32.7097131 -7.15649488 -47.45703125 -4.20703125 C-61.00258701 -0.76842042 -71.1804933 6.82001782 -78.4296875 18.671875 C-80.50749166 22.74777217 -81.78477431 26.91419585 -82.9375 31.33203125 C-83.95703125 33.66796875 -83.95703125 33.66796875 -86.0703125 34.50390625 C-86.69292969 34.55804688 -87.31554687 34.6121875 -87.95703125 34.66796875 C-89.08203125 33.0546875 -89.08203125 33.0546875 -89.95703125 30.66796875 C-86.9199934 17.7778138 -78.37971906 4.59003547 -67.06835938 -2.51904297 C-44.82048314 -15.13365291 -21.48876372 -14.62608469 0 0 Z " fill="#910921" transform="translate(220.95703125,11.33203125)"/>
<path d="M0 0 C3.465 1.485 3.465 1.485 7 3 C7 6.63 7 10.26 7 14 C1.125 10.125 1.125 10.125 0 9 C-0.07179964 7.48071962 -0.08392007 5.95832518 -0.0625 4.4375 C-0.05347656 3.61121094 -0.04445312 2.78492188 -0.03515625 1.93359375 C-0.02355469 1.29550781 -0.01195312 0.65742187 0 0 Z " fill="#CB2F48" transform="translate(197,44)"/>
</svg>
